<?xml version="1.0" encoding="utf-8"?>
<!-- Generator: Adobe Illustrator 24.0.3, SVG Export Plug-In . SVG Version: 6.00 Build 0)  -->
<svg version="1.1" id="Layer_1" xmlns="http://www.w3.org/2000/svg" xmlns:xlink="http://www.w3.org/1999/xlink" x="0px" y="0px"
	 viewBox="0 0 412 246" style="enable-background:new 0 0 412 246;" xml:space="preserve">
<style type="text/css">
	.st0{fill:none;stroke:#000000;stroke-miterlimit:10;}
	.st1{opacity:0.25;}
	.st2{fill:#D1EF75;}
	.st3{fill:#23C9E5;}
	.st4{fill:#FFB417;}
	.st5{fill:#E62179;}
</style>
<title>skills-program-ms-chart</title>
<line class="st0" x1="387.3" y1="244.9" x2="62.3" y2="244.9"/>
<g class="st1">
	<line class="st0" x1="170.4" y1="2.2" x2="170.2" y2="244.9"/>
	<line class="st0" x1="278.4" y1="0.8" x2="278.2" y2="243.5"/>
	<line class="st0" x1="387.4" y1="2.2" x2="387.2" y2="244.9"/>
</g>
<rect x="63" y="71.5" class="st2" width="278.8" height="45"/>
<rect x="63" y="18.2" class="st3" width="324" height="45"/>
<rect x="62.5" y="128.1" class="st4" width="162.5" height="45"/>
<rect x="63" y="182.9" class="st5" width="215.4" height="45"/>
<line class="st0" x1="62.5" y1="1.7" x2="62.5" y2="244.9"/>
<polygon class="st3" points="45.8,63.2 31.2,55.4 16.6,63 19.5,46.8 7.8,35.2 24.1,32.9 31.5,18.2 38.7,33 55,35.5 43.1,46.9 "/>
<polygon class="st2" points="54.8,105.1 31.1,116 7.6,104.5 7.9,82 31.6,71 55.1,82.6 "/>
<rect x="8.2" y="128.1" class="st4" width="45" height="45"/>
<circle class="st5" cx="31.4" cy="205.4" r="22.5"/>
</svg>
