<svg id="Layer_1" data-name="Layer 1" xmlns="http://www.w3.org/2000/svg" xmlns:xlink="http://www.w3.org/1999/xlink" viewBox="0 0 404 245"><defs><style>.cls-1{fill:#072600;}.cls-15,.cls-2{fill:#35fa00;}.cls-2,.cls-4,.cls-7,.cls-9{fill-rule:evenodd;}.cls-3{fill:url(#radial-gradient);}.cls-14,.cls-4{fill:#ee3d8f;}.cls-5{fill:#26c9ff;}.cls-6{fill:#061e26;}.cls-12,.cls-7{fill:#d9f5ff;}.cls-8{fill:url(#radial-gradient-2);}.cls-13,.cls-9{fill:#f37021;}.cls-10{fill:none;stroke:#000;stroke-miterlimit:10;}.cls-11{opacity:0.25;}</style><radialGradient id="radial-gradient" cx="208.98" cy="99.35" r="26.64" gradientTransform="matrix(1.01, 0, 0, -1.03, -188.16, 237.47)" gradientUnits="userSpaceOnUse"><stop offset="0" stop-color="#320008" stop-opacity="0.85"/><stop offset="0.77" stop-color="#320008"/></radialGradient><radialGradient id="radial-gradient-2" cx="23.96" cy="218.31" r="26.89" gradientTransform="matrix(1, 0, 0, -1.03, -1.14, 249.54)" gradientUnits="userSpaceOnUse"><stop offset="0" stop-color="#360100" stop-opacity="0.85"/><stop offset="0.77" stop-color="#360100"/></radialGradient></defs><title>skills-graphic-chart</title><rect class="cls-1" x="7.39" y="175.89" width="41.22" height="41.16"/><path class="cls-2" d="M5.5,174v45h45V174Zm1.89,1.89H48.61v41.16H7.39Z"/><path class="cls-2" d="M11.35,184.57c0-.19,0-.25.19-.25.69-.06,2.77-.12,4.85-.12,6.29,0,9.38,4.15,9.38,10.25,0,8.5-5.42,11-9.57,11-1.57,0-3.84,0-4.72-.06-.13,0-.19-.07-.19-.26Zm3.4,17.81a11.49,11.49,0,0,0,1.58.07c3.46,0,6-2.52,6-7.93s-2.65-7.3-5.92-7.3a15,15,0,0,0-1.7.06Zm23.79,3c-.19,0-.25-.07-.31-.26-.95-5.28-1.7-9.06-2-11.64h0c-.37,2.33-1.13,6.23-2.39,11.71-.06.19-.12.25-.25.25h-3c-.19,0-.25,0-.32-.25L26.9,190.05c0-.13.06-.25.19-.25h3c.12,0,.19.06.25.19,1.2,6.86,1.7,10.38,1.83,11.77h.06c.19-1.64.88-5.1,2.26-11.71.07-.19.07-.25.26-.25H38c.12,0,.18.06.18.25,1.07,6.23,1.83,10.19,2,11.77h.06c.31-2,.69-4.79,2-11.83.07-.13.07-.19.19-.19h2.83c.13,0,.19.06.13.25l-3.71,15.17c0,.19-.07.25-.26.25Z"/><rect class="cls-3" x="6.39" y="120.95" width="41.22" height="41.16"/><path class="cls-4" d="M4.5,119v45h45V119Zm1.83,2H47.55v41.16H6.33Z"/><path class="cls-4" d="M21.56,150.22c0,.19,0,.25-.26.25H18.41c-.19,0-.25-.06-.25-.25V129.57a.23.23,0,0,1,.25-.25H21.3c.13,0,.19.06.19.25v20.65Zm3.27-7.49c0-4.6,3-8.18,7.68-8.18a5.6,5.6,0,0,1,1,.06v-5.1a.17.17,0,0,1,.19-.19h3.09a.17.17,0,0,1,.19.19v18c0,.63,0,1.32.06,2a.17.17,0,0,1-.19.19,11,11,0,0,1-4.91,1.13C27.85,150.72,24.83,148.14,24.83,142.73Zm8.68-5a3.67,3.67,0,0,0-1.13-.19c-2.39,0-4.09,1.89-4.09,5.1,0,3.59,1.7,5.1,3.9,5.1a3.26,3.26,0,0,0,1.32-.25Z"/><path class="cls-5" d="M41.57,109H12.49a8.09,8.09,0,0,1-8-8.18h0V72.18A8.08,8.08,0,0,1,12.43,64H41.51a8.09,8.09,0,0,1,8,8.18h0v28.64A8,8,0,0,1,41.57,109Z"/><path class="cls-6" d="M40.81,107.05H13.19a6.89,6.89,0,0,1-6.8-7V72.87a6.89,6.89,0,0,1,6.8-7H40.81a6.89,6.89,0,0,1,6.8,7v27.19a6.89,6.89,0,0,1-6.8,7Z"/><path class="cls-7" d="M15.58,74.64a.17.17,0,0,1,.19-.19c1.19-.07,2.89-.13,4.65-.13,5,0,7.3,2.83,7.3,6.48,0,4.79-3.39,6.8-7.55,6.8-.69,0-.94-.06-1.45-.06v7.3a.17.17,0,0,1-.19.19H15.77a.17.17,0,0,1-.19-.19Zm3.21,9.94a10.23,10.23,0,0,0,1.51.06c2.14,0,4.15-.75,4.15-3.77,0-2.39-1.45-3.59-3.9-3.59-.76,0-1.45.06-1.76.06Zm16.3-2.2c-1.45,0-2,.75-2,1.38S33.45,84.9,35.4,86c2.9,1.38,3.78,2.76,3.78,4.78,0,3-2.2,4.59-5.23,4.59a8,8,0,0,1-3.77-.82c-.13-.06-.13-.12-.13-.31V91.44c0-.19.07-.25.19-.13A6.79,6.79,0,0,0,34,92.45c1.45,0,2-.63,2-1.45s-.44-1.26-2.26-2.27c-2.58-1.25-3.65-2.58-3.65-4.72,0-2.45,1.82-4.4,5-4.4a9.27,9.27,0,0,1,3.34.5.45.45,0,0,1,.18.38v2.58c0,.13-.06.19-.18.19h-.13a6,6,0,0,0-3.27-.88Z"/><rect class="cls-8" x="6.39" y="11.95" width="41.22" height="41.16"/><path class="cls-9" d="M4.5,10V55h45V10ZM6.39,12H47.61V53.11H6.39Z"/><path class="cls-9" d="M20.11,35.49,18.6,41.22c0,.19-.07.19-.25.19H15.58c-.19,0-.19-.07-.19-.32L20.67,22a5.74,5.74,0,0,0,.19-1.58c0-.12.07-.18.13-.18h3.9c.13,0,.19.06.19.18l6,20.77c.06.13,0,.26-.13.26H27.85c-.13,0-.25-.07-.25-.19L26,35.43Zm5.22-3.15c-.5-2.14-1.76-6.79-2.2-9.06h0c-.38,2.27-1.39,6-2.14,9.06Zm8.44-10.7a1.79,1.79,0,0,1,1.88-1.95,1.83,1.83,0,0,1,1.89,1.95,1.82,1.82,0,0,1-1.95,1.95c-1.07.07-1.82-.69-1.82-1.95ZM34,26.05c0-.13.06-.25.19-.25h2.95c.13,0,.19.06.19.25V41.22c0,.19,0,.25-.19.25H34.27a.23.23,0,0,1-.25-.25Z"/><line class="cls-10" x1="383.74" y1="222.44" x2="58.74" y2="222.44"/><path d="M36.75,237.34H34v2.42h2.53v.74H34v3.1h-.82v-7h3.56Z"/><path d="M43.09,243.6h-1l-1.17-2a4.21,4.21,0,0,0-.32-.47,1.89,1.89,0,0,0-.31-.32.91.91,0,0,0-.34-.17,1.31,1.31,0,0,0-.41-.06H38.9v3h-.82v-7h2.09a2.84,2.84,0,0,1,.84.11,1.91,1.91,0,0,1,.68.35,1.57,1.57,0,0,1,.44.58,1.94,1.94,0,0,1,.16.82,1.78,1.78,0,0,1-.11.67,1.57,1.57,0,0,1-.31.55,1.75,1.75,0,0,1-.49.4,2.17,2.17,0,0,1-.64.27v0a1.8,1.8,0,0,1,.31.17l.24.24a2.49,2.49,0,0,1,.23.31c.08.12.17.25.26.4Zm-4.19-6.26v2.54H40a1.79,1.79,0,0,0,.57-.09,1.68,1.68,0,0,0,.45-.27,1.19,1.19,0,0,0,.3-.43,1.4,1.4,0,0,0,.1-.56,1.12,1.12,0,0,0-.36-.88,1.55,1.55,0,0,0-1-.31Z"/><path d="M47.77,243.6H44.06v-7h3.55v.74H44.88v2.33h2.53v.74H44.88v2.45h2.89Z"/><path d="M48.79,243.32v-1a1.73,1.73,0,0,0,.4.26,2.55,2.55,0,0,0,.48.2,3.52,3.52,0,0,0,.52.12,2.8,2.8,0,0,0,.48,0,1.94,1.94,0,0,0,1.13-.28,1.07,1.07,0,0,0,.25-1.3,1.59,1.59,0,0,0-.35-.39,3.92,3.92,0,0,0-.52-.33l-.64-.33c-.25-.13-.48-.25-.69-.38a3.46,3.46,0,0,1-.55-.42,1.71,1.71,0,0,1-.37-.52,1.79,1.79,0,0,1,.08-1.51,1.82,1.82,0,0,1,.55-.59,2.75,2.75,0,0,1,.78-.34,3.8,3.8,0,0,1,.89-.11,3.37,3.37,0,0,1,1.51.25v.92a2.81,2.81,0,0,0-1.59-.43,2.48,2.48,0,0,0-.54.06,1.71,1.71,0,0,0-.48.18,1.07,1.07,0,0,0-.34.33.83.83,0,0,0-.13.49,1,1,0,0,0,.1.46,1.07,1.07,0,0,0,.29.36,3.33,3.33,0,0,0,.48.31l.65.33.71.39a3.44,3.44,0,0,1,.59.46,1.94,1.94,0,0,1,.4.55,1.52,1.52,0,0,1,.15.69,1.82,1.82,0,0,1-.2.88,1.7,1.7,0,0,1-.55.58,2.44,2.44,0,0,1-.79.33,4.85,4.85,0,0,1-1,.1l-.41,0a4.71,4.71,0,0,1-.5-.08,3.36,3.36,0,0,1-.48-.13A1.54,1.54,0,0,1,48.79,243.32Z"/><path d="M59.69,243.6h-.82v-3.19H55.25v3.19h-.82v-7h.82v3.07h3.62V236.6h.82Z"/><path d="M68.67,243.6h-.82v-4.7c0-.37,0-.82.07-1.36h0a5.27,5.27,0,0,1-.21.68L65.3,243.6h-.4l-2.39-5.34a4.1,4.1,0,0,1-.21-.72h0c0,.28,0,.74,0,1.37v4.69h-.79v-7h1.08l2.15,4.88a5.44,5.44,0,0,1,.32.84h0c.14-.38.25-.67.34-.86l2.19-4.86h1Z"/><path d="M75.93,243.6H75l-.74-2h-3l-.7,2H69.7l2.68-7h.85ZM74,240.9l-1.1-3a3,3,0,0,1-.11-.47h0a3,3,0,0,1-.11.47l-1.09,3Z"/><path d="M82.6,243.6h-1L78,238a2.58,2.58,0,0,1-.22-.44h0a8.39,8.39,0,0,1,0,1v5.06H77v-7H78l3.51,5.49c.14.23.24.38.28.47h0a7.82,7.82,0,0,1,0-1V236.6h.82Z"/><path d="M141.18,243.38v-1a2.13,2.13,0,0,0,.4.26,3.58,3.58,0,0,0,.49.2,4.7,4.7,0,0,0,.51.12,2.74,2.74,0,0,0,.48,0,1.86,1.86,0,0,0,1.13-.28.92.92,0,0,0,.37-.8,1,1,0,0,0-.12-.5,1.5,1.5,0,0,0-.34-.38,2.9,2.9,0,0,0-.52-.33l-.65-.34c-.25-.12-.47-.25-.68-.37a3.15,3.15,0,0,1-.56-.42,2.06,2.06,0,0,1-.37-.52,1.79,1.79,0,0,1-.13-.68,1.64,1.64,0,0,1,.21-.84A1.79,1.79,0,0,1,142,237a2.5,2.5,0,0,1,.78-.34,3.34,3.34,0,0,1,.89-.11,3.55,3.55,0,0,1,1.51.24v.93a2.69,2.69,0,0,0-1.59-.43,3.29,3.29,0,0,0-.54.05,1.46,1.46,0,0,0-.48.19,1,1,0,0,0-.34.32.88.88,0,0,0-.13.49,1,1,0,0,0,.4.82,3.18,3.18,0,0,0,.47.32l.65.33a6.85,6.85,0,0,1,.71.39,3.06,3.06,0,0,1,.59.45,1.89,1.89,0,0,1,.4.55,1.6,1.6,0,0,1,.15.7,1.7,1.7,0,0,1-.2.87,1.64,1.64,0,0,1-.55.59,2.23,2.23,0,0,1-.79.32,4.13,4.13,0,0,1-.95.1l-.41,0a4.13,4.13,0,0,1-.49-.07l-.49-.13A1.52,1.52,0,0,1,141.18,243.38Z"/><path d="M149.64,243.78a3,3,0,0,1-2.38-1,3.63,3.63,0,0,1-.9-2.55,3.9,3.9,0,0,1,.91-2.7,3.2,3.2,0,0,1,2.49-1,3,3,0,0,1,2.34,1,3.65,3.65,0,0,1,.88,2.56,3.86,3.86,0,0,1-.91,2.71A3.12,3.12,0,0,1,149.64,243.78Zm.06-6.49a2.26,2.26,0,0,0-1.79.79,3.55,3.55,0,0,0,0,4.18,2.2,2.2,0,0,0,1.75.78,2.3,2.3,0,0,0,1.82-.75,3.07,3.07,0,0,0,.66-2.1,3.23,3.23,0,0,0-.64-2.15A2.22,2.22,0,0,0,149.7,237.29Z"/><path d="M155.18,241v2.65h-.82v-7h1.92a2.56,2.56,0,0,1,1.74.55,1.92,1.92,0,0,1,.62,1.54,2.13,2.13,0,0,1-.68,1.63,2.61,2.61,0,0,1-1.86.64Zm0-3.61v2.87H156a1.92,1.92,0,0,0,1.3-.39,1.41,1.41,0,0,0,.44-1.1c0-.92-.54-1.38-1.64-1.38Z"/><path d="M165.22,243.67h-.82v-3.2h-3.62v3.2H160v-7h.82v3.07h3.62v-3.07h.82Z"/><path d="M174.2,243.67h-.82V239c0-.37,0-.83.07-1.36h0a4.57,4.57,0,0,1-.21.67l-2.39,5.39h-.4L168,238.32a3.7,3.7,0,0,1-.21-.71h0c0,.28,0,.73,0,1.37v4.69h-.79v-7h1.08l2.15,4.89a4.55,4.55,0,0,1,.32.84h0c.14-.39.26-.68.34-.86l2.19-4.87h1Z"/><path d="M178.86,243.78a3,3,0,0,1-2.38-1,3.63,3.63,0,0,1-.9-2.55,3.85,3.85,0,0,1,.91-2.7,3.2,3.2,0,0,1,2.49-1,3,3,0,0,1,2.33,1,3.61,3.61,0,0,1,.89,2.56,3.86,3.86,0,0,1-.91,2.71A3.12,3.12,0,0,1,178.86,243.78Zm.06-6.49a2.25,2.25,0,0,0-1.79.79,3.55,3.55,0,0,0,0,4.18,2.2,2.2,0,0,0,1.75.78,2.32,2.32,0,0,0,1.82-.75,3.07,3.07,0,0,0,.66-2.1,3.23,3.23,0,0,0-.64-2.15A2.22,2.22,0,0,0,178.92,237.29Z"/><path d="M188.6,243.67h-1l-1.17-2a4,4,0,0,0-.31-.46,1.9,1.9,0,0,0-.31-.32,1.16,1.16,0,0,0-.35-.18,1.64,1.64,0,0,0-.41-.05h-.67v3h-.82v-7h2.09a2.91,2.91,0,0,1,.85.12,1.79,1.79,0,0,1,.67.35,1.62,1.62,0,0,1,.45.58,2.14,2.14,0,0,1,.05,1.49,1.84,1.84,0,0,1-.32.54,1.74,1.74,0,0,1-.48.41,2.52,2.52,0,0,1-.65.26v0a1.33,1.33,0,0,1,.31.18,1.88,1.88,0,0,1,.25.24c.07.09.15.19.23.31l.25.4Zm-4.2-6.26v2.53h1.11a1.7,1.7,0,0,0,.57-.09,1.2,1.2,0,0,0,.45-.27,1.08,1.08,0,0,0,.3-.42,1.47,1.47,0,0,0,.11-.56,1.08,1.08,0,0,0-.37-.88,1.55,1.55,0,0,0-1-.31Z"/><path d="M193.27,243.67h-3.71v-7h3.55v.75h-2.73v2.32h2.53v.74h-2.53v2.45h2.89Z"/><path d="M260.48,241.12a3.15,3.15,0,0,1-.53,1.94,1.68,1.68,0,0,1-1.41.69,1.66,1.66,0,0,1-.68-.12v-.81a1.15,1.15,0,0,0,.69.19c.74,0,1.11-.63,1.11-1.88v-4.5h.82Z"/><path d="M267.38,240.8c0,2-.89,2.95-2.67,2.95s-2.54-.95-2.54-2.84v-4.28H263v4.23c0,1.43.6,2.15,1.81,2.15s1.76-.69,1.76-2.08v-4.3h.82Z"/><path d="M274.77,243.63h-1l-3.6-5.58a2.64,2.64,0,0,1-.23-.44h0a9.35,9.35,0,0,1,0,1v5.06h-.82v-7h1.07l3.5,5.49c.15.23.25.39.29.47h0a6.29,6.29,0,0,1-.05-1v-4.93h.82Z"/><path d="M277.42,243.63h-.82v-7h.82Z"/><path d="M282.09,243.75a3.11,3.11,0,0,1-2.39-1,3.69,3.69,0,0,1-.89-2.56,3.85,3.85,0,0,1,.91-2.69,3.2,3.2,0,0,1,2.49-1,3,3,0,0,1,2.33,1,3.65,3.65,0,0,1,.89,2.55,3.83,3.83,0,0,1-.91,2.71A3.12,3.12,0,0,1,282.09,243.75Zm.06-6.5a2.27,2.27,0,0,0-1.8.8,3.13,3.13,0,0,0-.68,2.09,3.08,3.08,0,0,0,.67,2.08,2.18,2.18,0,0,0,1.75.79,2.28,2.28,0,0,0,1.81-.75,3,3,0,0,0,.67-2.1,3.23,3.23,0,0,0-.65-2.15A2.22,2.22,0,0,0,282.15,237.25Z"/><path d="M291.82,243.63h-1l-1.17-2a5.41,5.41,0,0,0-.32-.47,1.51,1.51,0,0,0-.31-.31,1.11,1.11,0,0,0-.34-.18,1.31,1.31,0,0,0-.41-.06h-.67v3h-.83v-7h2.09a2.86,2.86,0,0,1,.85.12,1.89,1.89,0,0,1,.68.34,1.63,1.63,0,0,1,.44.59,1.88,1.88,0,0,1,.16.82,1.85,1.85,0,0,1-.11.67,1.62,1.62,0,0,1-.31.54,1.78,1.78,0,0,1-.49.41,2.45,2.45,0,0,1-.64.26v0a1.33,1.33,0,0,1,.31.18,1.7,1.7,0,0,1,.24.23,3.55,3.55,0,0,1,.23.31c.08.12.17.25.26.41Zm-4.19-6.26v2.54h1.11a1.79,1.79,0,0,0,.57-.09,1.29,1.29,0,0,0,.45-.27,1.15,1.15,0,0,0,.3-.42,1.48,1.48,0,0,0,.1-.57,1.1,1.1,0,0,0-.36-.87,1.55,1.55,0,0,0-1.05-.32Z"/><path d="M365.64,243.41v-1a2.13,2.13,0,0,0,.4.26,2.39,2.39,0,0,0,.49.2,4.7,4.7,0,0,0,.51.12,2.8,2.8,0,0,0,.48.05,1.94,1.94,0,0,0,1.13-.28A1,1,0,0,0,369,242a.94.94,0,0,0-.12-.49,1.41,1.41,0,0,0-.35-.39,3.92,3.92,0,0,0-.52-.33l-.64-.33-.69-.38a3.46,3.46,0,0,1-.55-.42,1.9,1.9,0,0,1-.37-.52,1.79,1.79,0,0,1,.08-1.51,1.82,1.82,0,0,1,.55-.59,2.75,2.75,0,0,1,.78-.34,3.8,3.8,0,0,1,.89-.11,3.37,3.37,0,0,1,1.51.25v.92a2.69,2.69,0,0,0-1.59-.43,2.48,2.48,0,0,0-.54.06,1.26,1.26,0,0,0-.48.18,1,1,0,0,0-.34.33.82.82,0,0,0-.13.48,1,1,0,0,0,.1.47,1.21,1.21,0,0,0,.29.36,3.33,3.33,0,0,0,.48.31l.65.33a6.85,6.85,0,0,1,.71.39,4,4,0,0,1,.59.45,2,2,0,0,1,.4.56,1.52,1.52,0,0,1,.15.69,1.74,1.74,0,0,1-.2.88,1.79,1.79,0,0,1-.55.58,2.23,2.23,0,0,1-.79.32,4.19,4.19,0,0,1-.95.1,3.18,3.18,0,0,1-.41,0l-.5-.08a3.36,3.36,0,0,1-.48-.13A1.21,1.21,0,0,1,365.64,243.41Z"/><path d="M375,243.7h-3.71v-7h3.55v.74H372.1v2.33h2.53v.73H372.1V243H375Z"/><path d="M382,243.7h-1l-3.61-5.58a2.58,2.58,0,0,1-.22-.44h0a8.39,8.39,0,0,1,0,1v5.06h-.82v-7h1.06l3.51,5.49c.14.23.24.38.28.47h0a7.82,7.82,0,0,1,0-1V236.7H382Z"/><path d="M384.64,243.7h-.82v-7h.82Z"/><path d="M389.3,243.81a3,3,0,0,1-2.38-1,3.61,3.61,0,0,1-.9-2.55,3.85,3.85,0,0,1,.91-2.7,3.2,3.2,0,0,1,2.49-1,3,3,0,0,1,2.33,1,3.65,3.65,0,0,1,.89,2.56,3.86,3.86,0,0,1-.91,2.71A3.12,3.12,0,0,1,389.3,243.81Zm.06-6.49a2.25,2.25,0,0,0-1.79.8,3.06,3.06,0,0,0-.69,2.09,3.1,3.1,0,0,0,.67,2.08,2.21,2.21,0,0,0,1.75.79,2.32,2.32,0,0,0,1.82-.75,3.12,3.12,0,0,0,.66-2.11,3.2,3.2,0,0,0-.64-2.14A2.2,2.2,0,0,0,389.36,237.32Z"/><path d="M399,243.7h-1l-1.17-2a5.2,5.2,0,0,0-.31-.46,1.9,1.9,0,0,0-.31-.32,1,1,0,0,0-.35-.17,1.27,1.27,0,0,0-.41-.06h-.67v3H394v-7h2.09a2.91,2.91,0,0,1,.85.11,2,2,0,0,1,.67.35,1.71,1.71,0,0,1,.45.58,2.1,2.1,0,0,1,.16.82,2,2,0,0,1-.11.67,1.77,1.77,0,0,1-.32.55,1.71,1.71,0,0,1-.48.4,2.54,2.54,0,0,1-.65.27h0l.31.18a1.88,1.88,0,0,1,.25.24c.07.09.15.19.23.31l.25.4Zm-4.2-6.26V240H396a1.48,1.48,0,0,0,.57-.1,1.24,1.24,0,0,0,.45-.26,1.19,1.19,0,0,0,.3-.43,1.4,1.4,0,0,0,.11-.56,1.08,1.08,0,0,0-.37-.88,1.55,1.55,0,0,0-1.05-.31Z"/><g class="cls-11"><line class="cls-10" x1="166.82" y1="1.59" x2="166.66" y2="222.5"/><line class="cls-10" x1="274.82" y1="0.32" x2="274.66" y2="221.22"/><line class="cls-10" x1="383.82" y1="1.59" x2="383.66" y2="222.5"/></g><rect class="cls-12" x="58.9" y="73.2" width="269.51" height="27"/><rect class="cls-13" x="59.4" y="19.7" width="268.6" height="27"/><rect class="cls-14" x="58.62" y="127.23" width="216.34" height="27"/><rect class="cls-15" x="58.62" y="180.23" width="269.38" height="27"/><line class="cls-10" x1="58.9" y1="1.2" x2="58.91" y2="222"/></svg>