<svg id="Layer_1" data-name="Layer 1" xmlns="http://www.w3.org/2000/svg" xmlns:xlink="http://www.w3.org/1999/xlink" viewBox="0 0 145 145"><defs><style>.cls-1{fill:#eb3c00;}.cls-2{fill:#036c70;}.cls-3{fill:#1a9ba1;}.cls-4{fill:#37c6d0;}.cls-5{opacity:0.1;}.cls-5,.cls-6{isolation:isolate;}.cls-6{opacity:0.2;}.cls-7{fill:#03787c;}.cls-8{fill:#fff;}.cls-9{fill:none;}.cls-10{fill:#742774;}.cls-10,.cls-11,.cls-12{fill-rule:evenodd;}.cls-11{fill:#ffb903;}.cls-12{fill:#06f;}.cls-13{fill:#5059c9;}.cls-14{fill:#7b83eb;}.cls-15{fill:url(#linear-gradient);}</style><linearGradient id="linear-gradient" x1="84.48" y1="-1906.79" x2="104.4" y2="-1872.3" gradientTransform="translate(8.5 1922.33)" gradientUnits="userSpaceOnUse"><stop offset="0" stop-color="#5a62c3"/><stop offset="0.5" stop-color="#4d55bd"/><stop offset="1" stop-color="#3940ab"/></linearGradient></defs><title>skills-program-ms</title><path class="cls-1" d="M14.74,119.12V31L92.93,2.15l42.49,13.56V134.38L92.93,147.15l-78.19-28,78.19,9.38V25.88l-51,11.87v69.5Z" transform="translate(-2.4 -2.15)"/><ellipse class="cls-2" cx="70.81" cy="61.73" rx="17.74" ry="17.69"/><ellipse class="cls-3" cx="87.38" cy="77.33" rx="15.17" ry="15.13"/><ellipse class="cls-4" cx="72.68" cy="91.53" rx="12.14" ry="12.1"/><path class="cls-5" d="M76.33,59.22H56.09A17.74,17.74,0,0,0,73.21,81.57c.52,0,1,0,1.54-.07v.07A12.13,12.13,0,0,0,62.94,93.68c0,.31,0,.62,0,.93H76.33a2.51,2.51,0,0,0,2.49-2.48V61.7A2.49,2.49,0,0,0,76.33,59.22Z" transform="translate(-2.4 -2.15)"/><path class="cls-6" d="M74.47,61.09H55.7A17.71,17.71,0,0,0,70.44,81.36a17.27,17.27,0,0,0,2.78.22c.52,0,1,0,1.54-.07v.07A12.13,12.13,0,0,0,63,94a11.92,11.92,0,0,0,.32,2.45H74.47A2.49,2.49,0,0,0,77,94V63.57A2.49,2.49,0,0,0,74.47,61.09Z" transform="translate(-2.4 -2.15)"/><path class="cls-6" d="M74.47,61.09H55.7A17.71,17.71,0,0,0,70.44,81.36a17.27,17.27,0,0,0,2.78.22c.52,0,1,0,1.54-.07v.07A12.12,12.12,0,0,0,63,92.76H74.47A2.5,2.5,0,0,0,77,90.27V63.57A2.49,2.49,0,0,0,74.47,61.09Z" transform="translate(-2.4 -2.15)"/><path class="cls-6" d="M72.59,61.09H55.69A17.71,17.71,0,0,0,70.43,81.36a17.27,17.27,0,0,0,2.78.22c.52,0,1,0,1.54-.07v.07A12.14,12.14,0,0,0,63,92.76h9.62a2.5,2.5,0,0,0,2.49-2.49V63.57A2.49,2.49,0,0,0,72.59,61.09Z" transform="translate(-2.4 -2.15)"/><path class="cls-7" d="M47.7,61.09H72.59a2.48,2.48,0,0,1,2.49,2.48h0V88.4a2.48,2.48,0,0,1-2.49,2.48H47.7a2.48,2.48,0,0,1-2.49-2.48h0V63.57a2.48,2.48,0,0,1,2.49-2.48Z" transform="translate(-2.4 -2.15)"/><path class="cls-8" d="M55.79,75.66A4.94,4.94,0,0,1,54.26,74a4.4,4.4,0,0,1-.54-2.22,4.22,4.22,0,0,1,1-2.86,5.92,5.92,0,0,1,2.64-1.73A11.11,11.11,0,0,1,61,66.68a13.68,13.68,0,0,1,4.76.66v3.35a7.2,7.2,0,0,0-2.15-.87,10.17,10.17,0,0,0-2.52-.31,5.55,5.55,0,0,0-2.59.55,1.69,1.69,0,0,0-1,1.55,1.6,1.6,0,0,0,.43,1.1,3.88,3.88,0,0,0,1.18.83c.49.25,1.22.57,2.19,1l.32.13A18.23,18.23,0,0,1,64.34,76,4.92,4.92,0,0,1,66,77.64a4.69,4.69,0,0,1,.59,2.48,4.57,4.57,0,0,1-.93,3,5.18,5.18,0,0,1-2.49,1.67,11.27,11.27,0,0,1-3.55.52A19.35,19.35,0,0,1,56.37,85a11,11,0,0,1-2.61-.75V80.74A8.68,8.68,0,0,0,56.4,82a10.34,10.34,0,0,0,2.91.46A4.93,4.93,0,0,0,62,81.9a1.76,1.76,0,0,0,.89-1.57,1.7,1.7,0,0,0-.5-1.21,4.81,4.81,0,0,0-1.37-1c-.58-.3-1.45-.68-2.59-1.16a14.5,14.5,0,0,1-2.59-1.35Z" transform="translate(-2.4 -2.15)"/><path class="cls-9" d="M45.21,46.19H105v59.59H45.21Z" transform="translate(-2.4 -2.15)"/><path class="cls-10" d="M54.8,10.85h-45a7.4,7.4,0,0,0-7.36,7.4V42.08a7.4,7.4,0,0,0,7.36,7.4h.92V47H9.76a4.94,4.94,0,0,1-4.92-5V18.25A4.94,4.94,0,0,1,9.76,13.3h45a4.93,4.93,0,0,1,4.91,4.95V42.08a4.93,4.93,0,0,1-4.91,5h-.92v2.45h.92a7.4,7.4,0,0,0,7.35-7.4V18.25A7.4,7.4,0,0,0,54.8,10.85Z" transform="translate(-2.4 -2.15)"/><path class="cls-10" d="M29.2,42.24l-4.16,4a1.87,1.87,0,0,1-2.6,0l-4.16-4a1.75,1.75,0,0,1,0-2.54l4.16-4.06a1.87,1.87,0,0,1,2.6,0L29.2,39.7A1.75,1.75,0,0,1,29.2,42.24Zm8-2.86L25.37,27.88a2.34,2.34,0,0,0-3.26,0L10.3,39.38a2.21,2.21,0,0,0,0,3.18l11.81,11.5a2.34,2.34,0,0,0,3.26,0l11.81-11.5A2.21,2.21,0,0,0,37.18,39.38Z" transform="translate(-2.4 -2.15)"/><path class="cls-10" d="M39.45,38.71l-5.24-5.22a1,1,0,0,1,0-1.41l5.24-5.22a1,1,0,0,1,1.41,0l5.24,5.22a1,1,0,0,1,0,1.41l-5.24,5.22A1,1,0,0,1,39.45,38.71Z" transform="translate(-2.4 -2.15)"/><path class="cls-10" d="M48,47.23,42.75,42a1,1,0,0,1,0-1.41L48,35.37a1,1,0,0,1,1.42,0l5.23,5.22a1,1,0,0,1,0,1.41L49.4,47.23A1,1,0,0,1,48,47.23Z" transform="translate(-2.4 -2.15)"/><path class="cls-10" d="M39.45,54.43l-5.24-5.22a1,1,0,0,1,0-1.41l5.24-5.23a1,1,0,0,1,1.41,0L46.1,47.8a1,1,0,0,1,0,1.41l-5.24,5.22A1,1,0,0,1,39.45,54.43Z" transform="translate(-2.4 -2.15)"/><path class="cls-11" d="M28.25,141.76a3.14,3.14,0,0,1-3-3.25V118.9a3,3,0,1,1,6,0v19.61A3.14,3.14,0,0,1,28.25,141.76Z" transform="translate(-2.4 -2.15)"/><path class="cls-11" d="M37.65,141.76a3.08,3.08,0,0,1-3-3.14v-13.8a3,3,0,1,1,6,0v13.8A3.08,3.08,0,0,1,37.65,141.76Z" transform="translate(-2.4 -2.15)"/><path class="cls-11" d="M46.37,141.76a3.14,3.14,0,0,1-3-3.25v-29a3,3,0,1,1,6,0v29A3.14,3.14,0,0,1,46.37,141.76Z" transform="translate(-2.4 -2.15)"/><path class="cls-11" d="M18.85,141.76a3.15,3.15,0,0,1-3-3.26v-8.88a3.15,3.15,0,0,1,3-3.26,3.15,3.15,0,0,1,3,3.26v8.88A3.15,3.15,0,0,1,18.85,141.76Z" transform="translate(-2.4 -2.15)"/><path class="cls-11" d="M54.64,96.9H9.91a7.54,7.54,0,0,0-7.51,7.55v26.41a7.53,7.53,0,0,0,7.51,7.55h2v-2.87h-2a4.67,4.67,0,0,1-4.65-4.68V104.45a4.67,4.67,0,0,1,4.65-4.68H54.64a4.67,4.67,0,0,1,4.65,4.68v26.41a4.66,4.66,0,0,1-4.65,4.68H52.79v2.87h1.85a7.53,7.53,0,0,0,7.51-7.55V104.45A7.54,7.54,0,0,0,54.64,96.9Z" transform="translate(-2.4 -2.15)"/><path class="cls-12" d="M140.76,97.89H94.3a6.6,6.6,0,0,0-6.64,6.56v19.42h2.63V104.45a4,4,0,0,1,4-4h46.46a4,4,0,0,1,4,4v24.86a4,4,0,0,1-4,4H119.28v2.59h21.48a6.59,6.59,0,0,0,6.64-6.56V104.45A6.59,6.59,0,0,0,140.76,97.89Z" transform="translate(-2.4 -2.15)"/><path class="cls-12" d="M130.92,120.81h-9.71a2,2,0,0,1-2-2v-3.33H116a1.25,1.25,0,0,0-1.17.79L109.38,133c-.33,1.25-1.57,3.51-4.09,3.51h-3.85v3.21a2,2,0,0,1-2,2H89.7a2,2,0,0,1-2-2v-9.68a2,2,0,0,1,2-2h9.7a2,2,0,0,1,2,2v3.33h3.85c.72,0,1-1.16,1-1.17l0-.12s4.85-15,5.46-16.83a4.37,4.37,0,0,1,4.16-3h3.18v-3.2a2,2,0,0,1,2-2h9.71a2,2,0,0,1,2,2v9.68A2,2,0,0,1,130.92,120.81ZM98.16,138.49H90.94v-7.21h7.22Z" transform="translate(-2.4 -2.15)"/><path class="cls-13" d="M129.33,25.86h15.43a2.64,2.64,0,0,1,2.64,2.63h0v14a9.69,9.69,0,0,1-9.7,9.68h0A9.69,9.69,0,0,1,128,42.51h0V27.23a1.37,1.37,0,0,1,1.38-1.37Z" transform="translate(-2.4 -2.15)"/><ellipse class="cls-13" cx="137.36" cy="14.7" rx="6.25" ry="6.24"/><ellipse class="cls-14" cx="117.91" cy="11.93" rx="9.03" ry="9.01"/><path class="cls-14" d="M132.35,25.86H106.88a2.61,2.61,0,0,0-2.55,2.66v16a15.3,15.3,0,1,0,30.57,0v-16A2.61,2.61,0,0,0,132.35,25.86Z" transform="translate(-2.4 -2.15)"/><path class="cls-5" d="M121,25.86V48.27a2.54,2.54,0,0,1-1.58,2.34,2.42,2.42,0,0,1-1,.19H105.55c-.18-.46-.34-.91-.48-1.38a16.7,16.7,0,0,1-.74-4.91v-16a2.6,2.6,0,0,1,2.54-2.66Z" transform="translate(-2.4 -2.15)"/><path class="cls-6" d="M119.61,25.86V49.65a2.42,2.42,0,0,1-.19,1,2.56,2.56,0,0,1-2.35,1.58H106.21c-.24-.46-.46-.92-.66-1.39s-.34-.91-.48-1.38a16.7,16.7,0,0,1-.74-4.91v-16a2.6,2.6,0,0,1,2.54-2.66Z" transform="translate(-2.4 -2.15)"/><path class="cls-6" d="M119.61,25.86v21a2.56,2.56,0,0,1-2.54,2.54h-12a16.7,16.7,0,0,1-.74-4.91v-16a2.6,2.6,0,0,1,2.54-2.66Z" transform="translate(-2.4 -2.15)"/><path class="cls-6" d="M118.23,25.86v21a2.57,2.57,0,0,1-2.55,2.54H105.07a16.7,16.7,0,0,1-.74-4.91v-16a2.6,2.6,0,0,1,2.54-2.66Z" transform="translate(-2.4 -2.15)"/><path class="cls-5" d="M121,18.69v4.37c-.23,0-.45,0-.69,0s-.46,0-.7,0a8.09,8.09,0,0,1-1.38-.22,9.06,9.06,0,0,1-6.26-5.3,7.39,7.39,0,0,1-.44-1.38h6.93A2.54,2.54,0,0,1,121,18.69Z" transform="translate(-2.4 -2.15)"/><path class="cls-6" d="M119.61,20.08v3a8.09,8.09,0,0,1-1.38-.22,9.06,9.06,0,0,1-6.26-5.3h5.1A2.55,2.55,0,0,1,119.61,20.08Z" transform="translate(-2.4 -2.15)"/><path class="cls-6" d="M119.61,20.08v3a8.09,8.09,0,0,1-1.38-.22,9.06,9.06,0,0,1-6.26-5.3h5.1A2.55,2.55,0,0,1,119.61,20.08Z" transform="translate(-2.4 -2.15)"/><path class="cls-6" d="M118.23,20.08v2.76a9.06,9.06,0,0,1-6.26-5.3h3.71A2.57,2.57,0,0,1,118.23,20.08Z" transform="translate(-2.4 -2.15)"/><path class="cls-15" d="M90.2,17.54h25.48a2.55,2.55,0,0,1,2.55,2.54V45.49A2.55,2.55,0,0,1,115.68,48H90.2a2.54,2.54,0,0,1-2.54-2.54V20.08A2.54,2.54,0,0,1,90.2,17.54Z" transform="translate(-2.4 -2.15)"/><path class="cls-8" d="M109.64,27.21h-5.09V41h-3.24V27.21H96.24V24.53h13.4Z" transform="translate(-2.4 -2.15)"/></svg>