<svg id="mnemonic" xmlns="http://www.w3.org/2000/svg" viewBox="0 0 145.27 145.27"><defs><style>.cls-1{fill:#fff;}.cls-1,.cls-2{stroke:#ffb417;stroke-width:1.08px;}.cls-1,.cls-2,.cls-3,.cls-4,.cls-5{stroke-miterlimit:10;}.cls-2,.cls-3{fill:none;}.cls-3{stroke:#e62179;}.cls-4{fill:#d1ef75;}.cls-4,.cls-5{stroke:#000;stroke-width:0.27px;}.cls-5{fill:#23c9e5;}</style></defs><title>skills-management-people</title><line class="cls-1" x1="71.66" y1="77.71" x2="71.19" y2="28.58"/><line class="cls-2" x1="71.89" y1="77.71" x2="122.44" y2="52.95"/><line class="cls-2" x1="122.44" y1="102.07" x2="71.89" y2="77.32"/><line class="cls-2" x1="71.43" y1="77.71" x2="20.88" y2="52.95"/><line class="cls-2" x1="20.88" y1="102.07" x2="71.43" y2="77.32"/><line class="cls-1" x1="72.01" y1="126.06" x2="71.54" y2="76.93"/><circle class="cls-3" cx="72.36" cy="77.19" r="50"/><ellipse class="cls-4" cx="14.36" cy="35.78" rx="7.9" ry="6.7"/><path class="cls-4" d="M30.68,67.87H2.25s0-8.05,0-13.4c0-10.33,28.21-10.33,28.43,0C30.79,60.07,30.68,67.87,30.68,67.87Z" transform="translate(-2.1 -1.28)"/><ellipse class="cls-4" cx="14.71" cy="83.47" rx="7.9" ry="6.7"/><path class="cls-4" d="M31,115.56H2.6s0-8,0-13.4c0-10.33,28.21-10.33,28.43,0C31.15,107.76,31,115.56,31,115.56Z" transform="translate(-2.1 -1.28)"/><ellipse class="cls-4" cx="130.87" cy="83.47" rx="7.9" ry="6.7"/><path class="cls-4" d="M147.18,115.56H118.76s0-8,0-13.4c0-10.33,28.21-10.33,28.42,0C147.3,107.76,147.18,115.56,147.18,115.56Z" transform="translate(-2.1 -1.28)"/><ellipse class="cls-4" cx="130.87" cy="35.7" rx="7.9" ry="6.7"/><path class="cls-4" d="M147.18,67.78H118.76s0-8,0-13.39c0-10.33,28.21-10.33,28.42,0C147.3,60,147.18,67.78,147.18,67.78Z" transform="translate(-2.1 -1.28)"/><ellipse class="cls-4" cx="72.2" cy="6.83" rx="7.9" ry="6.7"/><path class="cls-4" d="M88.52,38.92H60.09s0-8,0-13.39c.06-10.33,28.21-10.33,28.43,0C88.64,31.12,88.52,38.92,88.52,38.92Z" transform="translate(-2.1 -1.28)"/><ellipse class="cls-5" cx="72.2" cy="114.32" rx="7.9" ry="6.7"/><path class="cls-5" d="M88.52,146.41H60.09s0-8,0-13.4c.06-10.32,28.21-10.32,28.43,0C88.64,138.61,88.52,146.41,88.52,146.41Z" transform="translate(-2.1 -1.28)"/></svg>