<svg id="mnemonic" xmlns="http://www.w3.org/2000/svg" viewBox="0 0 150 150"><defs><style>.cls-1{fill:#fff;}.cls-1,.cls-2{stroke:#ffb417;}.cls-1,.cls-2,.cls-3{stroke-miterlimit:10;}.cls-2,.cls-3{fill:none;}.cls-3{stroke:#e62179;}.cls-4{fill:#d1ef75;}.cls-5{fill:#23c9e5;}</style></defs><title>skills-management-people</title><line class="cls-1" x1="73.91" y1="79.02" x2="73.5" y2="29.5"/><line class="cls-2" x1="74.1" y1="79.02" x2="117.33" y2="54.07"/><line class="cls-2" x1="117.33" y1="103.59" x2="74.1" y2="78.63"/><line class="cls-2" x1="73.71" y1="79.02" x2="30.48" y2="54.07"/><line class="cls-2" x1="30.48" y1="103.59" x2="73.71" y2="78.63"/><line class="cls-1" x1="74.2" y1="127.76" x2="73.8" y2="78.24"/><circle class="cls-3" cx="74.5" cy="78.5" r="50"/><rect class="cls-4" x="12.75" y="54.31" width="24.31" height="13.51"/><ellipse class="cls-4" cx="24.9" cy="54.31" rx="12.15" ry="8.1"/><circle class="cls-4" cx="24.9" cy="36.75" r="6.75"/><rect class="cls-4" x="112.44" y="54.31" width="24.31" height="13.51"/><ellipse class="cls-4" cx="124.6" cy="54.31" rx="12.15" ry="8.1"/><circle class="cls-4" cx="124.6" cy="36.75" r="6.75"/><rect class="cls-4" x="112.23" y="101.71" width="24.31" height="13.51"/><ellipse class="cls-4" cx="124.38" cy="101.71" rx="12.15" ry="8.1"/><circle class="cls-4" cx="124.38" cy="84.15" r="6.75"/><rect class="cls-5" x="61.68" y="134.24" width="24.31" height="13.51"/><ellipse class="cls-5" cx="73.84" cy="134.24" rx="12.15" ry="8.1"/><circle class="cls-5" cx="73.84" cy="116.68" r="6.75"/><rect class="cls-4" x="61.08" y="26.57" width="24.31" height="13.51"/><ellipse class="cls-4" cx="73.23" cy="26.57" rx="12.15" ry="8.1"/><circle class="cls-4" cx="73.23" cy="9.01" r="6.75"/><rect class="cls-4" x="12.36" y="101.71" width="24.31" height="13.51"/><ellipse class="cls-4" cx="24.51" cy="101.71" rx="12.15" ry="8.1"/><circle class="cls-4" cx="24.51" cy="84.15" r="6.75"/></svg>