<svg id="mnemonic" xmlns="http://www.w3.org/2000/svg" xmlns:xlink="http://www.w3.org/1999/xlink" viewBox="0 0 210.31 207.19"><defs><style>.cls-1{fill:none;}.cls-2{fill:#804933;stroke:#804933;stroke-width:10px;}.cls-2,.cls-3,.cls-4,.cls-5,.cls-6{stroke-miterlimit:10;opacity:0.25;}.cls-15,.cls-3{fill:#35fa00;}.cls-3{stroke:#35fa00;}.cls-3,.cls-4,.cls-5,.cls-6{stroke-width:4px;}.cls-11,.cls-4{fill:#26c9ff;}.cls-4{stroke:#26c9ff;}.cls-10,.cls-5{fill:#ee3d8f;}.cls-5{stroke:#ee3d8f;}.cls-6,.cls-8{fill:#f37021;}.cls-6{stroke:#f37021;}.cls-7{fill:url(#radial-gradient);}.cls-10,.cls-13,.cls-15,.cls-8{fill-rule:evenodd;}.cls-9{fill:url(#radial-gradient-2);}.cls-12{fill:#061e26;}.cls-13{fill:#d9f5ff;}.cls-14{fill:#072600;}.cls-16{clip-path:url(#clip-path);}.cls-17{fill:#da1f26;}</style><radialGradient id="radial-gradient" cx="43.36" cy="102.97" r="33.38" gradientTransform="matrix(0.45, 0, 0, -0.46, 22.68, 131.32)" gradientUnits="userSpaceOnUse"><stop offset="0" stop-color="#360100" stop-opacity="0.85"/><stop offset="0.77" stop-color="#360100"/></radialGradient><radialGradient id="radial-gradient-2" cx="260.08" cy="147.97" r="14.8" gradientTransform="matrix(1.01, 0, 0, -1.03, -187.26, 193.77)" gradientUnits="userSpaceOnUse"><stop offset="0" stop-color="#320008" stop-opacity="0.85"/><stop offset="0.77" stop-color="#320008"/></radialGradient><clipPath id="clip-path"><rect class="cls-1" x="69.57" y="77.07" width="71.5" height="52.7"/></clipPath></defs><title>skills-graphics</title><path class="cls-2" d="M99.82,6.57C75.07,8.12,53.12,17.63,35.7,34.35a96.05,96.05,0,0,0-29,55.74,77,77,0,0,0-.93,14.22A88.26,88.26,0,0,0,8.66,128a87.9,87.9,0,0,0,7.27,19.24,93.53,93.53,0,0,0,13.21,20,136.81,136.81,0,0,0,12.79,12.38,100.45,100.45,0,0,0,50.66,21.53c6.48.84,14.33,1,16.57.41a17.18,17.18,0,0,0,9-5.6,15.69,15.69,0,0,0,3.68-11.31c-.25-4-1.41-6.62-4.55-10.28a18.53,18.53,0,0,1-3.38-6.52,19.4,19.4,0,0,1,0-7.74,16.58,16.58,0,0,1,9.32-11c3.09-1.38,2.93-1.36,18.42-1.52,7.7-.08,14.24-.21,14.53-.27s1.46-.26,2.6-.45a54.94,54.94,0,0,0,30-15.31,53.19,53.19,0,0,0,14-23.08c2.24-7.33,2.76-16.49,1.45-25.76-3.86-27.19-22.13-51.16-49.4-64.76A108.7,108.7,0,0,0,116.12,7C113.06,6.65,102.54,6.41,99.82,6.57Z"/><path class="cls-3" d="M171.61,68.6A19.88,19.88,0,0,1,186.2,87.91,19,19,0,0,1,183,98.77,20,20,0,0,1,154.32,104a21.45,21.45,0,0,1-7.17-10A20.15,20.15,0,0,1,162.52,68.2,24,24,0,0,1,171.61,68.6Z"/><path class="cls-4" d="M137.14,24.82A20.22,20.22,0,0,1,152.77,41a24.59,24.59,0,0,1-.51,9.25,20.15,20.15,0,0,1-14.34,13.72,22,22,0,0,1-9.89,0,20.36,20.36,0,0,1-14.47-14.47,22.64,22.64,0,0,1,0-10,20.33,20.33,0,0,1,15.62-14.7A28.35,28.35,0,0,1,137.14,24.82Z"/><path class="cls-5" d="M83.37,25.19A20.38,20.38,0,0,1,97.11,39.47a23.33,23.33,0,0,1,0,10A20.37,20.37,0,0,1,82.62,63.93a22.06,22.06,0,0,1-9.9,0A20.19,20.19,0,0,1,58.37,50.2a24.59,24.59,0,0,1-.5-9.25A20.34,20.34,0,0,1,73.29,24.81,26.66,26.66,0,0,1,83.37,25.19Z"/><path class="cls-6" d="M47.5,68.13A19.06,19.06,0,0,1,58.65,74a18.79,18.79,0,0,1,5.64,11.65A19.93,19.93,0,0,1,58.1,102.5a19.21,19.21,0,0,1-8.52,4.79,24.4,24.4,0,0,1-10.1.1A20,20,0,0,1,24.44,88a19.48,19.48,0,0,1,3.18-11A20.07,20.07,0,0,1,47.5,68.13Z"/><rect class="cls-7" x="32.95" y="76.46" width="22.9" height="22.87"/><path class="cls-8" d="M31.9,75.37v25h25v-25ZM33,76.46H55.86V99.32H33Z"/><path class="cls-8" d="M40.58,89.53l-.84,3.19c0,.1,0,.1-.14.1H38.06c-.11,0-.11,0-.11-.17L40.89,82a3.52,3.52,0,0,0,.11-.88c0-.07,0-.1.07-.1h2.16c.07,0,.11,0,.11.1l3.32,11.54c0,.07,0,.14-.07.14H44.88c-.07,0-.14,0-.14-.1l-.88-3.22Zm2.9-1.75c-.28-1.18-1-3.77-1.23-5h0c-.21,1.26-.77,3.36-1.18,5Zm4.68-5.94a1,1,0,0,1,1.05-1.08,1,1,0,0,1,1,1.08,1,1,0,0,1-1.08,1.08,1,1,0,0,1-1-1.08Zm.14,2.45a.13.13,0,0,1,.11-.14h1.64c.07,0,.11,0,.11.14v8.43c0,.1,0,.13-.11.13H48.44a.13.13,0,0,1-.14-.13Z"/><rect class="cls-9" x="66.19" y="33.08" width="22.9" height="22.87"/><path class="cls-10" d="M65.14,32V57h25V32Zm1,1.09H89.06V55.94H66.15Z"/><path class="cls-10" d="M74.62,49.33c0,.11,0,.14-.14.14H72.87c-.11,0-.14,0-.14-.14V37.87a.13.13,0,0,1,.14-.14h1.61c.07,0,.1,0,.1.14V49.33Zm1.81-4.16a4.23,4.23,0,0,1,4.27-4.54,3.51,3.51,0,0,1,.56,0V37.83c0-.07,0-.1.1-.1h1.72c.07,0,.1,0,.1.1v10a9.93,9.93,0,0,0,0,1.09c0,.07,0,.1-.11.1a6.11,6.11,0,0,1-2.73.63C78.11,49.61,76.43,48.18,76.43,45.17Zm4.83-2.79a2,2,0,0,0-.63-.11c-1.33,0-2.27,1-2.27,2.83,0,2,.94,2.84,2.16,2.84a1.94,1.94,0,0,0,.74-.14Z"/><path class="cls-11" d="M142.19,57.7H124.75a4.85,4.85,0,0,1-4.8-4.91h0V35.61a4.84,4.84,0,0,1,4.76-4.91h17.44a4.85,4.85,0,0,1,4.8,4.91h0V52.79a4.82,4.82,0,0,1-4.76,4.91Z"/><path class="cls-12" d="M141.74,56.53H125.16a4.14,4.14,0,0,1-4.08-4.2V36a4.14,4.14,0,0,1,4.08-4.19h16.58A4.14,4.14,0,0,1,145.82,36V52.33a4.14,4.14,0,0,1-4.08,4.2Z"/><path class="cls-13" d="M126.6,37.08c0-.08,0-.11.11-.11.72,0,1.74-.08,2.79-.08,3,0,4.38,1.7,4.38,3.89,0,2.87-2,4.08-4.53,4.08-.41,0-.56,0-.87,0V49.2c0,.08,0,.11-.11.11h-1.66c-.08,0-.11,0-.11-.11Zm1.92,6a5.6,5.6,0,0,0,.91,0c1.28,0,2.49-.45,2.49-2.26,0-1.44-.87-2.16-2.34-2.16-.45,0-.87,0-1.06,0Zm9.78-1.32c-.87,0-1.17.46-1.17.83s.19.68,1.36,1.33c1.74.83,2.27,1.66,2.27,2.87,0,1.81-1.33,2.75-3.14,2.75a4.83,4.83,0,0,1-2.26-.49c-.08,0-.08-.07-.08-.19V47.16c0-.11,0-.15.11-.07a4.13,4.13,0,0,0,2.27.68c.87,0,1.21-.38,1.21-.87s-.27-.76-1.36-1.36c-1.55-.76-2.19-1.55-2.19-2.84,0-1.47,1.09-2.64,3-2.64a5.54,5.54,0,0,1,2,.3.26.26,0,0,1,.11.23v1.55a.1.1,0,0,1-.11.11h-.07a3.66,3.66,0,0,0-2-.53Z"/><rect class="cls-14" x="154.75" y="77.05" width="22.9" height="22.87"/><path class="cls-15" d="M153.7,76v25h25V76Zm1.05,1h22.9V99.92h-22.9Z"/><path class="cls-15" d="M157,81.88c0-.11,0-.14.11-.14.38,0,1.54-.07,2.69-.07,3.5,0,5.21,2.3,5.21,5.7,0,4.72-3,6.11-5.31,6.11-.88,0-2.14,0-2.63,0-.07,0-.1,0-.1-.14Zm1.89,9.89a6.19,6.19,0,0,0,.88,0c1.92,0,3.35-1.4,3.35-4.41s-1.47-4.06-3.29-4.06a6.93,6.93,0,0,0-.94,0Zm13.22,1.68c-.11,0-.14,0-.18-.14-.52-2.94-.94-5-1.12-6.47h0c-.21,1.29-.63,3.46-1.32,6.5,0,.11-.07.14-.14.14h-1.68c-.11,0-.14,0-.18-.14l-1.85-8.42c0-.07,0-.14.1-.14h1.68a.14.14,0,0,1,.14.1c.67,3.81,1,5.77,1,6.54h0c.11-.91.49-2.83,1.26-6.5,0-.11,0-.14.14-.14h1.78c.07,0,.11,0,.11.14.59,3.46,1,5.66,1.08,6.54h0c.17-1.12.38-2.66,1.12-6.58,0-.07,0-.1.1-.1h1.57c.07,0,.11,0,.07.14l-2.06,8.42c0,.11,0,.14-.14.14Z"/><g class="cls-16"><path class="cls-17" d="M141.07,102.27v2.4c0,.1-.1.3-.1.4-.1,1-.2,2.1-.4,3.1a23.45,23.45,0,0,1-3.5,9.2,25.82,25.82,0,0,1-10.9,9.8,24.72,24.72,0,0,1-8.4,2.5c-.7.1-1.3.1-1.9.2h-25c-.1,0-.3-.1-.4-.1a18.69,18.69,0,0,1-7.3-1.8,22.63,22.63,0,0,1-11.3-10.7,21.21,21.21,0,0,1-2.1-6.9c-.1-.6-.1-1.2-.2-1.8v-2.3c0-.1.1-.3.1-.4a20.42,20.42,0,0,1,1.4-6.4,22.41,22.41,0,0,1,24.3-14.3c.2,0,.3,0,.4-.1a25.3,25.3,0,0,1,7.3-5.3,24.72,24.72,0,0,1,8.4-2.5c.7-.1,1.4-.1,2.1-.2h2.2c.1,0,.3.1.4.1,1.1.1,2.1.2,3.2.4a23.45,23.45,0,0,1,9.2,3.5,26.05,26.05,0,0,1,9.9,10.9,24.72,24.72,0,0,1,2.5,8.4c0,.6.1,1.2.1,1.9m-39.9-15.2h0a42.76,42.76,0,0,1,4.2,2.6h.4a16.54,16.54,0,0,1,22,3.8,15.79,15.79,0,0,1,3.3,12.7,16.86,16.86,0,0,1-4,8.4,16.29,16.29,0,0,1-14.7,5.4,15.6,15.6,0,0,1-9.2-4.6c-3.3-3.3-6.6-6.6-9.8-9.9a2.6,2.6,0,0,0-1.6-.9,2.42,2.42,0,0,0-2.6,1.4,2.3,2.3,0,0,0,.5,2.8c3.6,3.6,7.3,7.2,10.9,10.8a16.32,16.32,0,0,0,2,1.7,18,18,0,0,0,8.9,3.4,21.61,21.61,0,0,0,7.6-.3,21.34,21.34,0,0,0,11.6-34.8,20.78,20.78,0,0,0-18.1-7.2,19.86,19.86,0,0,0-11.4,4.7m-1.8,37.7-.3-.3-4.5-4.2a1.16,1.16,0,0,0-1-.4,17.06,17.06,0,0,1-4.5-.3,12.56,12.56,0,0,1,5-24.6,12.75,12.75,0,0,1,6.8,3.5c2.3,2.4,4.6,4.7,7,7a2.28,2.28,0,0,0,1.9.7,2.44,2.44,0,0,0,2-1.5,2.15,2.15,0,0,0-.5-2.5c-2.5-2.5-4.8-5-7.3-7.4a16.46,16.46,0,0,0-17.1-4,17.34,17.34,0,0,0,5.3,33.9h6.9c0,.2.1.1.3.1"/></g></svg>