<svg id="Layer_1" data-name="Layer 1" xmlns="http://www.w3.org/2000/svg" viewBox="0 0 150 150"><defs><style>.cls-1{fill:#d1ef75;}.cls-2{fill:#23c9e5;}.cls-3,.cls-5{fill:none;stroke-miterlimit:10;}.cls-3{stroke:#e62179;}.cls-4{fill:#ffb417;}.cls-5{stroke:#000;}</style></defs><title>skills-management-program</title><path d="M134,9.77v133H10V9.77H134m1-1H9v135H135V8.77Z"/><path d="M134,9.72V142.66H41V9.72h93m1-1H40V143.66h95V8.72Z"/><path d="M134,9.72V142.66H73V9.72h61m1-1H72V143.66h63V8.72Z"/><path d="M134,9.72V142.66H104V9.72h30m1-1H103V143.66h32V8.72Z"/><rect class="cls-1" x="14" y="19" width="35" height="9"/><rect class="cls-2" x="64" y="36" width="26.76" height="9"/><line class="cls-3" x1="56.5" y1="23.5" x2="49" y2="23.5"/><line class="cls-3" x1="56" y1="40.5" x2="56" y2="23.5"/><line class="cls-3" x1="64" y1="40.5" x2="55.5" y2="40.5"/><rect class="cls-4" x="97.76" y="45" width="34.81" height="9"/><line class="cls-3" x1="94.76" y1="40.5" x2="90.76" y2="40.5"/><line class="cls-3" x1="94.2" y1="48.95" x2="94.2" y2="40.95"/><line class="cls-3" x1="97.76" y1="49.5" x2="93.71" y2="49.5"/><rect class="cls-2" x="108.28" y="86.5" width="17.5" height="9" transform="translate(234.07 182) rotate(180)"/><rect class="cls-1" x="61" y="69.5" width="32.28" height="9" transform="translate(154.28 148) rotate(180)"/><line class="cls-5" x1="100.78" y1="91" x2="108.28" y2="91"/><line class="cls-3" x1="101.28" y1="74" x2="101.28" y2="91"/><line class="cls-3" x1="93.28" y1="74" x2="101.78" y2="74"/><rect class="cls-4" x="24.72" y="60.5" width="29.28" height="9" transform="translate(78.72 130) rotate(180)"/><line class="cls-3" x1="57.56" y1="74" x2="61" y2="74"/><line class="cls-3" x1="57.56" y1="64.5" x2="57.56" y2="74.5"/><line class="cls-3" x1="54" y1="65" x2="58.05" y2="65"/><rect class="cls-1" x="94.93" y="120" width="30.85" height="9" transform="translate(220.71 249) rotate(180)"/><rect class="cls-4" x="72" y="109" width="15.5" height="9" transform="translate(159.5 227) rotate(180)"/><line class="cls-3" x1="91.23" y1="124.5" x2="94.93" y2="124.5"/><line class="cls-3" x1="91.21" y1="113" x2="91.21" y2="125"/><line class="cls-3" x1="87.5" y1="113.5" x2="91.21" y2="113.5"/><rect class="cls-2" x="35.05" y="100" width="25.19" height="9" transform="translate(95.29 209) rotate(180)"/><line class="cls-3" x1="65.8" y1="113.5" x2="72" y2="113.5"/><line class="cls-3" x1="65.8" y1="104.01" x2="65.8" y2="114.01"/><line class="cls-3" x1="60.24" y1="104.5" x2="65.8" y2="104.5"/></svg>