<svg id="Layer_1" data-name="Layer 1" xmlns="http://www.w3.org/2000/svg" viewBox="0 0 150 150"><defs><style>.cls-1,.cls-4{font-size:10px;}.cls-1{fill:#ffb417;font-family:SegoeUI-Light, Segoe UI;font-weight:300;}.cls-2{letter-spacing:-0.02em;}.cls-3{font-size:12px;fill:#d1ef75;font-family:ArialNarrow-Italic, Arial;font-style:italic;}.cls-4{fill:#23c9e5;font-family:ArialNarrow-Bold, Arial;font-weight:700;}.cls-5{fill:none;stroke:#e62179;stroke-miterlimit:10;}</style></defs><title>skills-management</title><text class="cls-1" transform="translate(19.37 30.1)">P<tspan class="cls-2" x="5.44" y="0">r</tspan><tspan x="8.54" y="0">ogram/P</tspan><tspan class="cls-2" x="45.31" y="0">r</tspan><tspan x="48.41" y="0">oject</tspan></text><text class="cls-3" transform="translate(87.37 48.1)">Process</text><text/><text class="cls-4" transform="translate(30.94 55.51)">PEOPLE</text><text class="cls-1" transform="translate(74.85 68.85)">P<tspan class="cls-2" x="5.44" y="0">r</tspan><tspan x="8.54" y="0">ogram/P</tspan><tspan class="cls-2" x="45.31" y="0">r</tspan><tspan x="48.41" y="0">oject</tspan></text><text class="cls-3" transform="translate(4.95 83.09)">Process</text><text class="cls-4" transform="translate(87.87 93.7)">PEOPLE</text><text class="cls-4" transform="translate(20.87 131.7)">PEOPLE</text><text class="cls-3" transform="translate(99.95 122.09)">Process</text><text class="cls-1" transform="translate(11.85 108.85)">P<tspan class="cls-2" x="5.44" y="0">r</tspan><tspan x="8.54" y="0">ogram/P</tspan><tspan class="cls-2" x="45.31" y="0">r</tspan><tspan x="48.41" y="0">oject</tspan></text><text class="cls-3" transform="translate(107.95 17.09)">Process</text><text class="cls-4" transform="translate(7.87 11.7)">PEOPLE</text><text class="cls-1" transform="translate(62.85 144.85)">P<tspan class="cls-2" x="5.44" y="0">r</tspan><tspan x="8.54" y="0">ogram/P</tspan><tspan class="cls-2" x="45.31" y="0">r</tspan><tspan x="48.41" y="0">oject</tspan></text><line class="cls-5" x1="8.5" y1="13" x2="40.5" y2="13"/><line class="cls-5" x1="31.5" y1="56.5" x2="63.5" y2="56.5"/><line class="cls-5" x1="88.5" y1="95.5" x2="120.5" y2="95.5"/><line class="cls-5" x1="21.5" y1="133.5" x2="53.5" y2="133.5"/></svg>