<svg id="Layer_1" data-name="Layer 1" xmlns="http://www.w3.org/2000/svg" xmlns:xlink="http://www.w3.org/1999/xlink" viewBox="0 0 150 150"><defs><style>.cls-1,.cls-22{fill:none;}.cls-2{fill:#9edcf2;}.cls-3{clip-path:url(#clip-path);}.cls-4{fill:#7dbce7;}.cls-5{fill:#010101;}.cls-6{fill:#f5ccb3;}.cls-31,.cls-36,.cls-37,.cls-41,.cls-7{fill:#fff;}.cls-8{fill:#af5c51;}.cls-9{fill:#c4e5d9;}.cls-10{fill:#68217a;}.cls-11{fill:url(#linear-gradient);}.cls-12{fill:url(#linear-gradient-2);}.cls-13{fill:url(#linear-gradient-3);}.cls-14{fill:url(#linear-gradient-4);}.cls-15{fill:url(#linear-gradient-5);}.cls-16{fill:#2fb1c6;}.cls-17{fill:#fec24c;}.cls-18{fill:#28cdae;}.cls-19{fill:#05567e;}.cls-20{fill:#e25346;}.cls-21{fill:#8a2053;}.cls-22{stroke:#fff;stroke-miterlimit:10;}.cls-23{font-size:3.14px;}.cls-23,.cls-31,.cls-36,.cls-37,.cls-41{font-family:MyriadPro-Regular, Myriad Pro;}.cls-24{letter-spacing:-0.01em;}.cls-25{letter-spacing:-0.01em;}.cls-26{letter-spacing:0.01em;}.cls-27{letter-spacing:0.01em;}.cls-28{letter-spacing:0em;}.cls-29{letter-spacing:-0.01em;}.cls-30{letter-spacing:0.02em;}.cls-31{font-size:1.93px;}.cls-32{letter-spacing:0.01em;}.cls-33{letter-spacing:-0.06em;}.cls-34{letter-spacing:-0.04em;}.cls-35{letter-spacing:-0.08em;}.cls-36{font-size:1.93px;}.cls-37{font-size:1.93px;}.cls-38{letter-spacing:0.02em;}.cls-39{letter-spacing:0.01em;}.cls-40{letter-spacing:-0.04em;}.cls-41{font-size:1.93px;}.cls-42{fill:#0078d4;}.cls-43{fill:#f25022;}.cls-44{fill:#ffb901;}.cls-45{fill:#01a4ef;}.cls-46{fill:#7fba00;}.cls-47{fill:#333;}.cls-48{fill:#30261d;}.cls-49{clip-path:url(#clip-path-2);}.cls-50{fill:#f32735;}</style><clipPath id="clip-path"><path class="cls-1" d="M67.15,130.23a4.78,4.78,0,0,0,1.33,1.89h5.83a4.38,4.38,0,0,0,1.44-2.93v-4.35a1.71,1.71,0,0,1,1.07-1.44s.59-.41,0-.63l-2.55,2v3.37s.1,1.14-.51,1.61v-4s-.2-1.3.48-1.79c0,0,.45-.81-.55-.59a2.38,2.38,0,0,0-2,2.47v4.26h-.51l0-4.21A2.51,2.51,0,0,0,69,123.41c-1.11-.23-.6.58-.6.58a2.55,2.55,0,0,1,.8,1.79v4.05c-.61-.43-.51-1.66-.51-1.66v-3.38l-2.66-2c-.63.22,0,.62,0,.62a2.1,2.1,0,0,1,1.18,1.44v5.4Z"/></clipPath><linearGradient id="linear-gradient" x1="-1.09" y1="151.02" x2="-0.97" y2="151.02" gradientTransform="matrix(152.36, 0, 0, -160.03, 227.42, 24219.64)" gradientUnits="userSpaceOnUse"><stop offset="0" stop-color="#21d789"/><stop offset="1" stop-color="#07c3f2"/></linearGradient><linearGradient id="linear-gradient-2" x1="0.29" y1="150.52" x2="0.41" y2="150.52" gradientTransform="matrix(313.7, -231.58, -189.06, -384.24, 28405.88, 57968.87)" gradientUnits="userSpaceOnUse"><stop offset="0" stop-color="#fcf84a"/><stop offset="0.01" stop-color="#fcf84a"/><stop offset="0.11" stop-color="#a7eb62"/><stop offset="0.21" stop-color="#5fe077"/><stop offset="0.27" stop-color="#32da84"/><stop offset="0.31" stop-color="#21d789"/><stop offset="0.58" stop-color="#21d789"/><stop offset="0.6" stop-color="#21d789"/><stop offset="0.69" stop-color="#20d68c"/><stop offset="0.76" stop-color="#1ed497"/><stop offset="0.83" stop-color="#19d1a9"/><stop offset="0.9" stop-color="#13ccc2"/><stop offset="0.97" stop-color="#0bc6e1"/><stop offset="1" stop-color="#07c3f2"/></linearGradient><linearGradient id="linear-gradient-3" x1="1.14" y1="151.68" x2="1.26" y2="151.68" gradientTransform="matrix(52.32, -164.18, -104.21, -82.43, 15801.31, 12764.44)" gradientUnits="userSpaceOnUse"><stop offset="0" stop-color="#21d789"/><stop offset="0.16" stop-color="#24d788"/><stop offset="0.3" stop-color="#2fd886"/><stop offset="0.44" stop-color="#41da82"/><stop offset="0.56" stop-color="#5adc7d"/><stop offset="0.69" stop-color="#7ae077"/><stop offset="0.81" stop-color="#a1e36e"/><stop offset="0.93" stop-color="#cfe865"/><stop offset="1" stop-color="#f1eb5e"/></linearGradient><linearGradient id="linear-gradient-4" x1="0.58" y1="151.25" x2="0.7" y2="151.25" gradientTransform="matrix(113.86, -153.08, -194.19, -89.75, 29368.18, 13720.46)" gradientUnits="userSpaceOnUse"><stop offset="0" stop-color="#21d789"/><stop offset="0.06" stop-color="#24d788"/><stop offset="0.11" stop-color="#2fd886"/><stop offset="0.16" stop-color="#41da82"/><stop offset="0.21" stop-color="#5add7d"/><stop offset="0.25" stop-color="#79e077"/><stop offset="0.26" stop-color="#7ce076"/><stop offset="0.5" stop-color="#8ce173"/><stop offset="0.92" stop-color="#b2e56b"/><stop offset="1" stop-color="#b2e56b"/></linearGradient><linearGradient id="linear-gradient-5" x1="1.45" y1="149.11" x2="1.56" y2="149.11" gradientTransform="matrix(-229.42, -2.14, -2.03, 241.52, 718.63, -35951.34)" gradientUnits="userSpaceOnUse"><stop offset="0" stop-color="#fcf84a"/><stop offset="0.39" stop-color="#fcf84a"/><stop offset="0.54" stop-color="#ecf451"/><stop offset="0.83" stop-color="#c2e964"/><stop offset="0.92" stop-color="#b2e56b"/><stop offset="1" stop-color="#b2e56b"/></linearGradient><clipPath id="clip-path-2"><rect class="cls-1" x="13.07" y="78.25" width="40" height="16.71"/></clipPath></defs><title>skills-program</title><path class="cls-2" d="M81.72,124c0,2-4.56,3.54-10.19,3.54S61.34,126,61.34,124s4.56-3.55,10.18-3.55,10.19,1.59,10.19,3.55Z"/><g class="cls-3"><path class="cls-4" d="M81.72,124c0,2-4.56,3.54-10.19,3.54S61.34,126,61.34,124s4.56-3.55,10.18-3.55,10.19,1.59,10.19,3.55Z"/></g><path class="cls-2" d="M60.05,113.51l-.29,1A.35.35,0,0,0,60,115h0c.37,0,.34-.35.31-.46l-.29-1Z"/><path class="cls-5" d="M89.41,109.24l0-.13a34.32,34.32,0,0,0-7.84-.5,14.57,14.57,0,0,0,.39-3.72,6.52,6.52,0,0,0-2-4.78A6.18,6.18,0,0,0,79.73,96s-1.39-.43-4.52,1.64a16.61,16.61,0,0,0-8.08.1C63.91,95.5,62.48,96,62.48,96a5.89,5.89,0,0,0-.18,4.44,6.42,6.42,0,0,0-1.77,4.51,11.13,11.13,0,0,0,.55,3.71,34.3,34.3,0,0,0-7.64.5l0,.13a33.5,33.5,0,0,1,7.68-.5,5.17,5.17,0,0,0,.28.64,35.34,35.34,0,0,0-7.92,1.11l0,.13a34.4,34.4,0,0,1,7.94-1.12c1.09,2,3.24,3.31,7.07,3.72a3.06,3.06,0,0,0-1.32,2A3.28,3.28,0,0,1,62.73,114a3.15,3.15,0,0,0-2.26-1.53s-1.46,0-.1.9A3.82,3.82,0,0,1,62,115.58s.88,2.93,5.12,2v3.13s-.57,1.19-1.17,1.43c0,0-.59.4,0,.63l2.65-2v-3.39s-.1-1.23.51-1.66v5.4s.1,1.3-.58,1.79c0,0-.45.81.55.59a2.58,2.58,0,0,0,2-2.47v-5.61h.51l0,5.52a2.5,2.5,0,0,0,2.16,2.47c1.11.22.6-.59.6-.59a2.56,2.56,0,0,1-.79-1.79v-5.26c.61.47.51,1.61.51,1.61v3.38l2.56,2c.63-.23,0-.63,0-.63a1.74,1.74,0,0,1-1.08-1.43v-4.38a3.44,3.44,0,0,0-1.42-3.06c4.08-.39,6-1.7,6.94-3.73a34.28,34.28,0,0,1,8.07,1.12l0-.13a35.75,35.75,0,0,0-8-1.13q.12-.32.21-.63a33.94,33.94,0,0,1,7.86.5Z"/><path class="cls-6" d="M78,104.77a3.79,3.79,0,0,1,1.41,2.79c0,4.83-3.64,5-8.1,5s-8.1-.67-8.1-5a3.74,3.74,0,0,1,1.38-2.77c1.46-1.32,3.93-.63,6.73-.63S76.53,103.46,78,104.77Z"/><path class="cls-7" d="M68.66,107.8c0,1.33-.75,2.39-1.69,2.39s-1.69-1.08-1.69-2.41.76-2.4,1.69-2.4,1.69,1.07,1.69,2.4Z"/><path class="cls-8" d="M68.05,107.83c0,.89-.5,1.61-1.12,1.61s-1.13-.72-1.13-1.61.51-1.6,1.13-1.6S68.05,107,68.05,107.83Z"/><path class="cls-7" d="M77.65,107.8c0,1.33-.75,2.41-1.69,2.41s-1.69-1.08-1.69-2.41.76-2.4,1.69-2.4S77.65,106.47,77.65,107.8Z"/><path class="cls-8" d="M77.11,107.83c0,.89-.51,1.61-1.13,1.61s-1.12-.72-1.12-1.61.51-1.6,1.12-1.6S77.11,107,77.11,107.83Z"/><path class="cls-8" d="M71.74,109.94a.42.42,0,0,1-.84,0,.42.42,0,1,1,.84,0Z"/><path class="cls-8" d="M70.34,111a.12.12,0,0,1,0-.18.13.13,0,0,1,.18.05.08.08,0,0,1,0,0,.76.76,0,0,0,1,.46.74.74,0,0,0,.47-.46.13.13,0,0,1,.17-.08h0a.14.14,0,0,1,.09.17h0a1,1,0,0,1-1.33.62A1,1,0,0,1,70.34,111Z"/><path class="cls-9" d="M61,112.92c0,.11-.14.2-.3.2s-.29-.09-.29-.2.13-.21.29-.21S61,112.8,61,112.92Z"/><path class="cls-9" d="M61.79,113.36c0,.12-.13.2-.29.2s-.3-.08-.3-.2.14-.2.3-.2S61.79,113.26,61.79,113.36Z"/><path class="cls-9" d="M62.29,114c0,.11-.13.2-.3.2s-.29-.09-.29-.2.13-.2.29-.2S62.29,113.84,62.29,114Z"/><path class="cls-9" d="M62.74,114.62c0,.11-.13.2-.29.2s-.3-.09-.3-.2.13-.2.3-.2S62.74,114.51,62.74,114.62Z"/><path class="cls-9" d="M63.24,115.25c0,.12-.13.21-.3.21s-.29-.09-.29-.21.13-.2.29-.2S63.24,115.14,63.24,115.25Z"/><path class="cls-9" d="M63.92,115.79c0,.11-.13.2-.3.2s-.29-.09-.29-.2.13-.21.29-.21S63.92,115.67,63.92,115.79Z"/><path class="cls-9" d="M64.88,116.15c0,.11-.13.2-.29.2s-.29-.09-.29-.2.13-.21.29-.21S64.88,116,64.88,116.15Z"/><path class="cls-9" d="M65.81,116.15c0,.11-.13.2-.29.2s-.29-.09-.29-.2.13-.21.29-.21S65.81,116,65.81,116.15Z"/><path class="cls-9" d="M66.78,116c0,.11-.13.2-.3.2s-.29-.09-.29-.2.13-.2.29-.2S66.78,115.88,66.78,116Z"/><path id="path2998" class="cls-10" d="M44.51,13.79l-7.15-2.86L24.88,23.08l-7.51-5.72L14.51,18.8v15l2.84,1.42,7.51-5.71L37.37,41.65l7.14-2.86Z"/><path id="path3000" class="cls-7" d="M36.64,20.94,29.5,26.27l7.14,5.38Z"/><path id="path3002" class="cls-7" d="M18.08,23.09V29.5l3.56-3.23Z"/><polygon class="cls-11" points="72.26 44.74 81.03 52.01 77.84 58.43 72.59 56.98 68 56.98 72.26 44.74"/><polygon class="cls-12" points="63.4 49.48 61.72 58.43 61.57 61.53 57.26 63.35 51.21 64.01 53.04 44.6 64.06 40.01 70.81 44.47 63.4 49.48"/><polygon class="cls-13" points="63.4 49.48 64.24 66.77 61.48 70.01 51.21 64.01 59.66 51.4 63.4 49.48"/><polygon class="cls-14" points="74.75 48.19 64.34 48.19 73.53 39.98 74.75 48.19"/><polygon class="cls-15" points="81.21 66.82 72.07 69.96 59.88 66.54 63.4 49.48 64.81 48.21 72.26 47.51 71.56 54.96 77.47 52.67 81.21 66.82"/><rect x="56.83" y="45.64" width="18.74" height="18.74"/><path class="cls-7" d="M58.63,60.85H65.7V62H58.63ZM58.55,48h3.24c1.89,0,3,1.09,3,2.69,0,1.8-1.41,2.74-3.16,2.74H60.28v2.38H58.55ZM63,50.84c0-.75-.52-1.17-1.4-1.17H60.28v2.38h1.35A1.2,1.2,0,0,0,63,50.84ZM65.37,52a3.93,3.93,0,0,1,4-4,3.83,3.83,0,0,1,3,1.22l-1.07,1.27a2.85,2.85,0,0,0-2-.89A2.29,2.29,0,0,0,67.14,52a2.33,2.33,0,0,0,2.25,2.44,3,3,0,0,0,2.07-.89l1.07,1.08a4.16,4.16,0,0,1-6,.22A4.06,4.06,0,0,1,65.37,52Z"/><circle class="cls-7" cx="125.18" cy="93.8" r="9.21"/><path class="cls-16" d="M116.63,79.14l4,6.58c-3,2.15-4.22,4.1-4.58,8.08h-7.59C108.44,86.84,111.46,82.25,116.63,79.14Z"/><path class="cls-17" d="M133.71,79.18l-3.84,6.54a9.62,9.62,0,0,1,4.57,8.08h7.73A16.69,16.69,0,0,0,133.71,79.18Z"/><path class="cls-18" d="M116.63,79.14l3.91,6.69c2.59-1.53,7.07-1.55,9.33-.11l4-6.47A16.74,16.74,0,0,0,116.63,79.14Z"/><path class="cls-19" d="M116.57,108.45l4-6.57c-3-2.16-4.22-4.1-4.58-8.08h-7.59C108.38,100.76,111.48,105.85,116.57,108.45Z"/><path class="cls-20" d="M133.65,108.42l-3.84-6.54a9.63,9.63,0,0,0,4.57-8.08h7.73A16.7,16.7,0,0,1,133.65,108.42Z"/><path class="cls-21" d="M116.57,108.45l3.91-6.68c2.59,1.52,7.07,1.54,9.33.11l4,6.46A16.69,16.69,0,0,1,116.57,108.45Z"/><circle class="cls-22" cx="125.24" cy="93.68" r="14.78"/><line class="cls-22" x1="117.7" y1="80.97" x2="120.81" y2="86.08"/><line class="cls-22" x1="132.78" y1="80.97" x2="129.65" y2="85.75"/><line class="cls-22" x1="140.02" y1="93.98" x2="133.84" y2="93.98"/><line class="cls-22" x1="110.45" y1="93.98" x2="116.17" y2="93.98"/><line class="cls-22" x1="117.86" y1="106.28" x2="121" y2="101.11"/><line class="cls-22" x1="132.39" y1="106.28" x2="129.37" y2="101.13"/><text class="cls-23" transform="translate(121.56 88.84)"><tspan class="cls-24">A</tspan><tspan class="cls-25" x="1.88" y="0">g</tspan><tspan x="3.62" y="0">ile </tspan><tspan x="-2.35" y="3.77">so</tspan><tspan class="cls-26" x="0.62" y="3.77">f</tspan><tspan class="cls-27" x="1.57" y="3.77">t</tspan><tspan class="cls-28" x="2.64" y="3.77">w</tspan><tspan x="4.93" y="3.77">a</tspan><tspan class="cls-29" x="6.45" y="3.77">r</tspan><tspan x="7.44" y="3.77">e </tspan><tspan x="-5.47" y="7.54">de</tspan><tspan class="cls-29" x="-2.13" y="7.54">v</tspan><tspan x="-0.65" y="7.54">elopme</tspan><tspan class="cls-28" x="9.37" y="7.54">n</tspan><tspan x="11.1" y="7.54">t </tspan><tspan class="cls-30" x="0.02" y="11.3">c</tspan><tspan class="cls-29" x="1.48" y="11.3">y</tspan><tspan x="2.93" y="11.3">cle</tspan></text><polygon class="cls-19" points="109.27 91.27 110.02 92.63 110.77 93.98 109.27 93.98 107.77 93.98 108.52 92.63 109.27 91.27"/><polygon class="cls-16" points="118.53 78.61 117.84 79.94 117.15 81.28 116.34 79.87 115.53 78.47 117.03 78.54 118.53 78.61"/><polygon class="cls-18" points="135.43 81.2 133.93 81.2 132.43 81.2 133.22 79.87 134.02 78.55 134.72 79.87 135.43 81.2"/><polygon class="cls-17" points="142.75 92.47 141.25 92.47 139.75 92.47 140.54 93.8 141.34 95.12 142.04 93.8 142.75 92.47"/><polygon class="cls-20" points="134.56 108.68 133.06 108.67 131.56 108.67 132.26 107.41 132.96 106.14 133.76 107.41 134.56 108.68"/><polygon class="cls-21" points="118.07 106.51 116.57 106.56 115.07 106.6 115.74 107.8 116.4 109.01 117.24 107.76 118.07 106.51"/><text class="cls-31" transform="translate(114 92.14) rotate(-61)"><tspan class="cls-32">E</tspan><tspan class="cls-33" x="0.97" y="0">V</tspan><tspan x="1.94" y="0">A</tspan><tspan class="cls-34" x="3.12" y="0">LU</tspan><tspan class="cls-35" x="5.15" y="0">A</tspan><tspan x="6.19" y="0">TE</tspan></text><text class="cls-36" transform="matrix(0.52, 0.86, -0.86, 0.52, 132.99, 86.66)">PLAN</text><text class="cls-37" transform="translate(122.73 82.91)">ME<tspan class="cls-38" x="2.51" y="0">E</tspan><tspan x="3.49" y="0">T</tspan></text><text class="cls-37" transform="translate(121.27 105.47)">D<tspan class="cls-39" x="1.29" y="0">E</tspan><tspan x="2.26" y="0">VE</tspan><tspan class="cls-40" x="4.29" y="0">L</tspan><tspan x="5.13" y="0">OP</tspan></text><text class="cls-36" transform="translate(113.91 98.29) rotate(57)">TEST</text><text class="cls-41" transform="matrix(0.56, -0.83, 0.83, 0.56, 133.78, 102.73)">DESIGN</text><polygon class="cls-42" points="31.33 136.89 37.69 136.89 37.69 118.88 31.33 119.8 31.33 136.89"/><polygon class="cls-42" points="12.09 134.94 18.23 138.93 30.01 143.33 37.69 136.89 12.09 134.94"/><polygon class="cls-42" points="18.23 138.93 18.13 143.33 12.09 134.94 18.23 138.93"/><polygon class="cls-42" points="11.89 120.21 7.69 124.53 7.69 132.92 11.89 134.45 11.89 120.21"/><polygon class="cls-42" points="30.91 119.72 21.02 118.03 10.32 120.64 7.69 124.42 30.91 119.72"/><polygon class="cls-42" points="20.99 121.04 20.37 113.1 30.91 119.72 20.99 121.04"/><rect class="cls-43" x="91.6" y="5.94" width="14.35" height="14.35"/><rect class="cls-44" x="107.25" y="21.59" width="14.35" height="14.35"/><rect class="cls-45" x="91.6" y="21.59" width="14.35" height="14.35"/><rect class="cls-46" x="107.25" y="5.94" width="14.35" height="14.35"/><path class="cls-47" d="M112.23,60h-1.12V55.9c0-1.51-.53-2.27-1.61-2.27a1.57,1.57,0,0,0-.68.15,1.74,1.74,0,0,0-.54.43,2,2,0,0,0-.36.61,2.08,2.08,0,0,0-.13.71V60h-1.11V55.63a2.51,2.51,0,0,0-.39-1.45,1.3,1.3,0,0,0-1.14-.55,1.47,1.47,0,0,0-.72.17,1.77,1.77,0,0,0-.56.46,2,2,0,0,0-.37.65,2.15,2.15,0,0,0-.14.74V60h-1.11V54.71c0-.28,0-.58,0-.9s0-.63,0-1h1V54h.11a2.42,2.42,0,0,1,2.23-1.32,2,2,0,0,1,1.24.39,2.08,2.08,0,0,1,.75,1.05h0a2.88,2.88,0,0,1,1-1.08,2.63,2.63,0,0,1,1.38-.36,2,2,0,0,1,1.68.81,3.52,3.52,0,0,1,.64,2.25V60Zm5.8,0-.11-.92h0a2.46,2.46,0,0,1-2.17,1.09,2.34,2.34,0,0,1-.85-.15A2,2,0,0,1,113.75,59a2,2,0,0,1-.17-.82,2.2,2.2,0,0,1,1.09-2,6,6,0,0,1,3.15-.67v-.17q0-1.77-1.65-1.77a3.31,3.31,0,0,0-1.82.52l-.26-.77a4,4,0,0,1,2.24-.61c1.75,0,2.62,1,2.62,2.87v2.75c0,.35,0,.66,0,.95a7.24,7.24,0,0,0,.09.76Zm-.19-3.72h-.23c-1.92,0-2.88.57-2.88,1.7A1.17,1.17,0,0,0,116,59.32a2,2,0,0,0,.67-.12,1.85,1.85,0,0,0,.6-.33,1.7,1.7,0,0,0,.42-.53,1.48,1.48,0,0,0,.17-.7ZM125.59,54a3.13,3.13,0,0,0-1.52-.36,2.53,2.53,0,0,0-1.09.22,2.35,2.35,0,0,0-.8.59,2.84,2.84,0,0,0-.51.9,3.61,3.61,0,0,0,0,2.28,2.74,2.74,0,0,0,.52.88,2.29,2.29,0,0,0,.8.57,2.58,2.58,0,0,0,1,.2,3.84,3.84,0,0,0,1.6-.36l.22.86a4.47,4.47,0,0,1-2,.42,3.8,3.8,0,0,1-1.43-.26,3,3,0,0,1-1.1-.74,3.27,3.27,0,0,1-.71-1.16,4.37,4.37,0,0,1-.25-1.5,4.32,4.32,0,0,1,.28-1.55,3.58,3.58,0,0,1,.77-1.2,3.36,3.36,0,0,1,1.18-.79,4,4,0,0,1,1.52-.28,3.65,3.65,0,0,1,1.79.39l-.28.89Zm9.84.94a6.63,6.63,0,0,1-.32,2.14,4.91,4.91,0,0,1-.9,1.66A4.15,4.15,0,0,1,131,60.19a4.1,4.1,0,0,1-1.77-.38,4.25,4.25,0,0,1-1.39-1.06,5.13,5.13,0,0,1-.9-1.61,6.28,6.28,0,0,1-.32-2,6.4,6.4,0,0,1,.34-2.14,5,5,0,0,1,.93-1.66,4.18,4.18,0,0,1,3.22-1.47,4.24,4.24,0,0,1,1.8.38,3.7,3.7,0,0,1,1.37,1,4.76,4.76,0,0,1,.88,1.6A6.45,6.45,0,0,1,135.43,54.91Zm-1.2.06a5.5,5.5,0,0,0-.24-1.66,4.53,4.53,0,0,0-.66-1.34,3.05,3.05,0,0,0-1-.89,2.61,2.61,0,0,0-1.3-.32,2.76,2.76,0,0,0-1.34.32,3,3,0,0,0-1,.89,4.06,4.06,0,0,0-.66,1.37,6,6,0,0,0-.24,1.73,5.42,5.42,0,0,0,.24,1.64,4,4,0,0,0,.66,1.33,3.13,3.13,0,0,0,1,.9,2.62,2.62,0,0,0,1.31.32,2.75,2.75,0,0,0,1.33-.32,3.05,3.05,0,0,0,1-.91,4.41,4.41,0,0,0,.66-1.36,6.13,6.13,0,0,0,.23-1.7Zm8,2.36A2.78,2.78,0,0,1,142,58.5a2.62,2.62,0,0,1-.68.9,3,3,0,0,1-1.06.57,4.39,4.39,0,0,1-1.4.2,4.14,4.14,0,0,1-2.45-.64l.31-.93a4.12,4.12,0,0,0,2.21.62,2.36,2.36,0,0,0,1.6-.49,1.66,1.66,0,0,0,.56-1.31,1.75,1.75,0,0,0-.44-1.23,3.89,3.89,0,0,0-1.45-.85c-1.71-.65-2.57-1.59-2.57-2.83a2.57,2.57,0,0,1,.23-1.07,2.45,2.45,0,0,1,.65-.85,3,3,0,0,1,1-.55,3.79,3.79,0,0,1,1.24-.19,4.14,4.14,0,0,1,2.11.48l-.34.92a3.32,3.32,0,0,0-1.82-.46,2.17,2.17,0,0,0-1.4.43,1.41,1.41,0,0,0-.53,1.14,1.63,1.63,0,0,0,.1.61,1.41,1.41,0,0,0,.32.51,2.29,2.29,0,0,0,.6.45,7.29,7.29,0,0,0,1,.46,7.11,7.11,0,0,1,1.14.57,3.23,3.23,0,0,1,.78.66,2.18,2.18,0,0,1,.44.78,3,3,0,0,1,.14.93Z"/><path class="cls-48" d="M37,83.94a1.36,1.36,0,0,0-1.53,1.47c0,.78.43,1.32,1.49,1.32a1.34,1.34,0,0,0,1.49-1.36A1.3,1.3,0,0,0,37,83.94Zm-1.75,7.32a1.37,1.37,0,0,0-.41.84c0,.64.81.83,1.92.83.93,0,2.19-.06,2.19-.92,0-.52-.61-.55-1.37-.59l-2.33-.16ZM40,84a2.48,2.48,0,0,1,.59,1.61c0,1.77-1.39,2.8-3.4,2.8a5.1,5.1,0,0,1-1.26-.14l-.52.84,1.56.1c2.76.18,4.38.25,4.38,2.37,0,1.84-1.61,2.87-4.38,2.87s-4-.73-4-2a2.07,2.07,0,0,1,.88-1.63,1.07,1.07,0,0,1-.7-1,1.45,1.45,0,0,1,.46-1c.29-.3.61-.61,1-1a2.54,2.54,0,0,1-1.37-2.39c0-1.83,1.21-3.09,3.65-3.09a5.33,5.33,0,0,1,1.47.16h3.11v1.35L40,84Z"/><path class="cls-48" d="M44.28,81.09a1.31,1.31,0,0,1-1.43-1.44,1.44,1.44,0,0,1,2.88,0,1.31,1.31,0,0,1-1.45,1.44Zm-2.06,9.58V89.41L43,89.3c.22,0,.25-.08.25-.32V84.29a.29.29,0,0,0-.21-.33l-.86-.3.18-1.29h3.3V89c0,.26,0,.29.25.32l.82.11v1.26Z"/><g class="cls-49"><path class="cls-48" d="M53.07,90.05a6.27,6.27,0,0,1-2.6.64c-1.89,0-2.61-.77-2.61-2.57V84c0-.1,0-.16-.13-.16H46.61V82.37c1.41-.16,2-.86,2.14-2.6h1.52V82c0,.11,0,.16.12.16h2.25v1.6H50.27V87.6c0,.94.22,1.3,1.08,1.3a3.84,3.84,0,0,0,1.29-.25l.43,1.4Z"/><path class="cls-50" d="M29.45,85.87l-7.29-7.29a1.07,1.07,0,0,0-1.52,0l-1.51,1.51L21.05,82a1.28,1.28,0,0,1,1.61,1.63l1.86,1.85a1.29,1.29,0,0,1,1.32.31,1.28,1.28,0,1,1-2.09.41L22,84.49V89a1.16,1.16,0,0,1,.34.24,1.28,1.28,0,1,1-1.81,0A1.4,1.4,0,0,1,21,89V84.41a1.4,1.4,0,0,1-.42-.28,1.27,1.27,0,0,1-.27-1.4l-1.9-1.89-5,5a1.09,1.09,0,0,0,0,1.53l7.29,7.28a1.07,1.07,0,0,0,1.52,0l7.25-7.25a1.07,1.07,0,0,0,0-1.52Z"/></g><path d="M96.6,133.59l.5-.58a2.76,2.76,0,0,0,1.92.81c.9,0,1.42-.43,1.42-1s-.51-.9-1.17-1.17l-1-.42a1.87,1.87,0,0,1-1.41-1.69,1.91,1.91,0,0,1,2.15-1.74,2.86,2.86,0,0,1,2,.81l-.44.54a2.31,2.31,0,0,0-1.61-.61c-.76,0-1.27.36-1.27,1s.61.86,1.17,1.08l.92.41c.81.32,1.45.77,1.45,1.74s-.88,1.87-2.32,1.87A3.33,3.33,0,0,1,96.6,133.59Z"/><path d="M102.73,132a2.52,2.52,0,0,1,2.71-2.56,2.47,2.47,0,0,1,1.77.71l-.41.53a2,2,0,0,0-1.33-.55,1.78,1.78,0,0,0-1.89,1.87,1.76,1.76,0,0,0,1.87,1.84,2.31,2.31,0,0,0,1.5-.61l.37.54a2.89,2.89,0,0,1-1.93.76A2.45,2.45,0,0,1,102.73,132Z"/><path d="M109.38,129.59h.69l.08,1.15h0a2.56,2.56,0,0,1,2.17-1.27,2,2,0,0,1,1,.2l-.19.71a2.44,2.44,0,0,0-.9-.16,2.28,2.28,0,0,0-2,1.39v2.83h-.83Z"/><path d="M114.7,132.6v-3h.83v2.91c0,.9.32,1.34,1.12,1.34a1.93,1.93,0,0,0,1.51-.89v-3.36H119v4.85h-.69l-.07-.85h0a2.37,2.37,0,0,1-1.81,1C115.23,134.56,114.7,133.88,114.7,132.6Z"/><path d="M120.51,129.59h.66l.07.64h0a1.21,1.21,0,0,1,1.11-.76c.48,0,.78.28.92.84.28-.52.58-.84,1.14-.84s1.08.53,1.08,1.5v3.47h-.82V131c0-.56-.16-.85-.52-.85s-.52.25-.78.75v3.51h-.76V131c0-.56-.14-.85-.5-.85s-.56.25-.8.75v3.51h-.82Z"/></svg>