<svg id="mnemonic" xmlns="http://www.w3.org/2000/svg" viewBox="0 0 150 150"><defs><style>.cls-1{fill:#d1ef75;}.cls-2{fill:#ffb417;}.cls-3{fill:#e62179;}.cls-4{fill:#23c9e5;}.cls-5{font-size:16px;fill:#fff;font-family:ArialNarrow-Bold, Arial;font-weight:700;}</style></defs><title>skills-management-process</title><path class="cls-1" d="M76.51,109.51v26.75s-58.77,0-62.8-62.06H39.48C45.11,111.65,76.51,109.51,76.51,109.51Z"/><path class="cls-2" d="M76.51,38.88V12.13s-58.77,0-62.8,62.07H39.48C45.11,36.74,76.51,38.88,76.51,38.88Z"/><path class="cls-3" d="M76.51,38.88V12.13s58.78,0,62.81,62.07H113.55C107.92,36.74,76.51,38.88,76.51,38.88Z"/><path class="cls-4" d="M76.51,109.51v26.75s58.78,0,62.81-62.06H113.55C107.92,111.65,76.51,109.51,76.51,109.51Z"/><polygon class="cls-2" points="103.78 26.44 75.41 2.5 75.41 50.39 103.78 26.44"/><polygon class="cls-4" points="49.24 123.56 77.62 99.61 77.62 147.5 49.24 123.56"/><polygon class="cls-3" points="123.56 101.38 147.57 73.09 99.53 73.09 123.56 101.38"/><polygon class="cls-1" points="26.59 47.02 50.62 75.3 2.58 75.3 26.59 47.02"/><text class="cls-5" transform="matrix(0.8, -0.6, 0.6, 0.8, 37.18, 51.41)">PLAN</text><text class="cls-5" transform="matrix(0.8, -0.6, 0.6, 0.8, 84.82, 132.69)">CHECK</text><text class="cls-5" transform="matrix(0.56, 0.83, -0.83, 0.56, 106.22, 40.92)">DO</text><text class="cls-5" transform="matrix(0.56, 0.83, -0.83, 0.56, 23.54, 91.82)">ACT</text></svg>