<svg id="Layer_1" data-name="Layer 1" xmlns="http://www.w3.org/2000/svg" viewBox="0 0 145 145"><defs><style>.cls-1{fill:#d1ef75;}.cls-2{fill:#23c9e5;}.cls-3,.cls-5{fill:none;stroke-miterlimit:10;stroke-width:1.19px;}.cls-3{stroke:#e62179;}.cls-4{fill:#ffb417;}.cls-5{stroke:#000;}</style></defs><title>skills-management-program</title><path d="M146.17,4.81V147.68H3.24V4.81H146.17m1-1H2.21V148.72h145V3.78Z" transform="translate(-2.21 -3.72)"/><path d="M146.17,4.75V147.62H39.11V4.75H146.17m1-1H38.08V148.65H147.21V3.72Z" transform="translate(-2.21 -3.72)"/><path d="M146.18,4.75V147.62h-70V4.75h70m1-1H75.14V148.65h72.07V3.72Z" transform="translate(-2.21 -3.72)"/><path d="M146.18,4.74V147.63H112V4.74h34.14m1-1H111V148.65h36.2V3.72Z" transform="translate(-2.21 -3.72)"/><rect class="cls-1" x="2.19" y="6.68" width="38.93" height="10.35"/><rect class="cls-2" x="59.68" y="26.24" width="33.12" height="10.35"/><line class="cls-3" x1="50.41" y1="11.86" x2="41.12" y2="11.86"/><line class="cls-3" x1="49.78" y1="31.42" x2="49.78" y2="11.86"/><line class="cls-3" x1="59.68" y1="31.42" x2="49.16" y2="31.42"/><rect class="cls-4" x="101.47" y="36.59" width="41.89" height="10.35"/><line class="cls-3" x1="97.76" y1="31.42" x2="92.81" y2="31.42"/><line class="cls-3" x1="97.06" y1="41.13" x2="97.06" y2="31.93"/><line class="cls-3" x1="101.47" y1="41.77" x2="96.47" y2="41.77"/><rect class="cls-2" x="116.71" y="88.05" width="21.66" height="10.35" transform="translate(252.87 182.73) rotate(180)"/><rect class="cls-1" x="58.18" y="68.49" width="39.96" height="10.35" transform="translate(154.11 143.62) rotate(180)"/><line class="cls-5" x1="105.21" y1="89.51" x2="114.5" y2="89.51"/><line class="cls-3" x1="105.84" y1="69.95" x2="105.84" y2="89.51"/><line class="cls-3" x1="95.93" y1="69.95" x2="106.46" y2="69.95"/><rect class="cls-4" x="13.26" y="58.14" width="36.25" height="10.35" transform="translate(60.57 122.91) rotate(180)"/><line class="cls-3" x1="51.72" y1="69.95" x2="55.97" y2="69.95"/><line class="cls-3" x1="51.72" y1="59.02" x2="51.72" y2="70.53"/><line class="cls-3" x1="47.31" y1="59.6" x2="52.31" y2="59.6"/><rect class="cls-1" x="100.18" y="126.58" width="38.19" height="10.35" transform="translate(236.34 259.8) rotate(180)"/><rect class="cls-4" x="71.8" y="113.93" width="19.19" height="10.35" transform="translate(160.57 234.49) rotate(180)"/><line class="cls-3" x1="93.39" y1="128.04" x2="97.97" y2="128.04"/><line class="cls-3" x1="93.36" y1="114.81" x2="93.36" y2="128.62"/><line class="cls-3" x1="88.77" y1="115.39" x2="93.36" y2="115.39"/><rect class="cls-2" x="26.06" y="103.58" width="31.18" height="10.35" transform="translate(81.09 213.79) rotate(180)"/><line class="cls-3" x1="61.92" y1="115.39" x2="69.59" y2="115.39"/><line class="cls-3" x1="61.92" y1="104.47" x2="61.92" y2="115.97"/><line class="cls-3" x1="55.03" y1="105.04" x2="61.92" y2="105.04"/></svg>