<svg id="Layer_1" data-name="Layer 1" xmlns="http://www.w3.org/2000/svg" viewBox="0 0 519.74 593.22"><defs><style>.cls-1{opacity:0.35;}.cls-2,.cls-24{fill:#e24b93;}.cls-3{fill:#23c9e5;}.cls-13,.cls-15,.cls-16,.cls-4,.cls-8{fill:#fff;}.cls-11,.cls-12,.cls-14,.cls-19,.cls-20,.cls-21,.cls-22,.cls-23,.cls-24,.cls-25,.cls-4,.cls-7{stroke:#000;}.cls-22,.cls-5{fill:#fcbd4c;}.cls-23,.cls-6{fill:#d1ef75;}.cls-11,.cls-12,.cls-14,.cls-19,.cls-20,.cls-21,.cls-25,.cls-7{fill:none;}.cls-8{stroke:#e24b93;}.cls-13,.cls-15,.cls-16,.cls-8{stroke-width:14.51px;}.cls-9{font-size:18.87px;font-family:Arial-BoldMT, Arial;font-weight:700;opacity:0.15;}.cls-10{letter-spacing:-0.06em;}.cls-11{stroke-width:1.01px;}.cls-12{stroke-width:1px;}.cls-13{stroke:#23c9e5;}.cls-14{stroke-width:1.15px;}.cls-15{stroke:#fcbd4c;}.cls-16{stroke:#d1ef75;}.cls-17{font-size:20px;font-family:ArialMT, Arial;}.cls-18{letter-spacing:-0.07em;}.cls-19{stroke-width:0.18px;}.cls-20{stroke-width:1.15px;}.cls-21{stroke-miterlimit:10;}.cls-21,.cls-22,.cls-23,.cls-24,.cls-25{stroke-width:0.25px;}</style></defs><rect class="cls-1" x="19.03" y="11.26" width="40" height="40"/><rect class="cls-1" x="19.13" y="176.97" width="25" height="25"/><rect class="cls-2" x="76.23" y="238.9" width="110.38" height="35"/><circle class="cls-1" cx="39.03" cy="256.4" r="20"/><polygon class="cls-3" points="39.16 35.09 31.43 30.96 23.7 34.99 25.23 26.41 19.03 20.26 27.67 19.04 31.59 11.26 35.4 19.1 44.03 20.42 37.73 26.46 39.16 35.09"/><line class="cls-4" x1="186.62" y1="0.5" x2="186.62" y2="287.16"/><rect class="cls-5" x="75.55" y="163.99" width="222.14" height="35"/><line class="cls-4" x1="297.68" y1="0.39" x2="297.68" y2="287.05"/><line class="cls-4" x1="404.46" y1="0.5" x2="404.46" y2="287.16"/><rect class="cls-6" x="76.23" y="86.62" width="385.61" height="35"/><rect class="cls-3" x="75.55" y="13.76" width="443.59" height="35"/><rect class="cls-7" x="0.5" y="0.5" width="518.63" height="286.44"/><rect class="cls-8" x="317.53" y="163.02" width="194.25" height="247.84"/><text class="cls-9" transform="translate(330.19 191.88)">0<tspan class="cls-10" x="10.49" y="0">11</tspan><tspan x="29.4" y="0">10</tspan><tspan class="cls-10" x="50.38" y="0">1</tspan><tspan x="59.84" y="0">10 0</tspan><tspan class="cls-10" x="96.56" y="0">11</tspan><tspan x="115.46" y="0">10010 </tspan><tspan x="0" y="22.64">0</tspan><tspan class="cls-10" x="10.49" y="22.64">1</tspan><tspan x="19.95" y="22.64">100101 0</tspan><tspan class="cls-10" x="98.64" y="22.64">11</tspan><tspan x="117.54" y="22.64">100</tspan><tspan class="cls-10" x="149.02" y="22.64">1</tspan><tspan x="158.48" y="22.64">1 </tspan><tspan x="0" y="45.28">0</tspan><tspan class="cls-10" x="10.49" y="45.28">1</tspan><tspan x="19.95" y="45.28">101001 0</tspan><tspan class="cls-10" x="98.64" y="45.28">1</tspan><tspan x="108.09" y="45.28">10</tspan><tspan class="cls-10" x="129.08" y="45.28">111</tspan><tspan x="157.43" y="45.28">1 </tspan><tspan x="0" y="67.92">0</tspan><tspan class="cls-10" x="10.49" y="67.92">1</tspan><tspan x="19.95" y="67.92">10</tspan><tspan class="cls-10" x="40.93" y="67.92">11</tspan><tspan x="59.84" y="67.92">10 00100000 </tspan><tspan x="0" y="90.56">010000</tspan><tspan class="cls-10" x="62.96" y="90.56">1</tspan><tspan x="72.41" y="90.56">1 0</tspan><tspan class="cls-10" x="98.64" y="90.56">1</tspan><tspan x="108.09" y="90.56">10</tspan><tspan class="cls-10" x="129.08" y="90.56">111</tspan><tspan x="157.43" y="90.56">1 </tspan><tspan x="0" y="113.2">0</tspan><tspan class="cls-10" x="10.49" y="113.2">1</tspan><tspan x="19.95" y="113.2">10</tspan><tspan class="cls-10" x="40.93" y="113.2">11</tspan><tspan x="59.84" y="113.2">10 0</tspan><tspan class="cls-10" x="96.56" y="113.2">11</tspan><tspan x="115.46" y="113.2">10100 </tspan><tspan x="0" y="135.84">0</tspan><tspan class="cls-10" x="10.49" y="135.84">11</tspan><tspan x="29.4" y="135.84">10010 0</tspan><tspan class="cls-10" x="97.6" y="135.84">1</tspan><tspan x="107.05" y="135.84">10</tspan><tspan class="cls-10" x="128.04" y="135.84">111</tspan><tspan x="156.39" y="135.84">1 </tspan><tspan x="0" y="158.48">0</tspan><tspan class="cls-10" x="10.49" y="158.48">1</tspan><tspan x="19.95" y="158.48">10</tspan><tspan class="cls-10" x="40.93" y="158.48">1</tspan><tspan x="50.38" y="158.48">100 00100000 </tspan><tspan x="0" y="181.13">01000</tspan><tspan class="cls-10" x="52.47" y="181.13">1</tspan><tspan x="61.92" y="181.13">10 0</tspan><tspan class="cls-10" x="98.64" y="181.13">1</tspan><tspan x="108.09" y="181.13">101001 </tspan><tspan x="0" y="203.77">0</tspan><tspan class="cls-10" x="10.49" y="203.77">1</tspan><tspan x="19.95" y="203.77">10</tspan><tspan class="cls-10" x="40.93" y="203.77">11</tspan><tspan x="59.84" y="203.77">10 0</tspan><tspan class="cls-10" x="96.56" y="203.77">1</tspan><tspan x="106.01" y="203.77">100001 </tspan></text><rect class="cls-11" x="324.65" y="170.08" width="179" height="234.16"/><rect class="cls-12" x="310.08" y="156.11" width="209.16" height="262"/><rect class="cls-13" x="259.47" y="221.08" width="194.25" height="247.84"/><rect class="cls-7" x="268.24" y="227.92" width="176.73" height="234.16"/><text class="cls-9" transform="translate(270.35 250.93)">01010<tspan class="cls-10" x="52.47" y="0">1</tspan><tspan x="61.92" y="0">10 01010010 </tspan><tspan x="0" y="22.64">0</tspan><tspan class="cls-10" x="10.49" y="22.64">1</tspan><tspan x="19.95" y="22.64">100101 0</tspan><tspan class="cls-10" x="98.64" y="22.64">11</tspan><tspan x="117.54" y="22.64">100</tspan><tspan class="cls-10" x="149.02" y="22.64">1</tspan><tspan x="158.48" y="22.64">1 </tspan><tspan x="0" y="45.28">0</tspan><tspan class="cls-10" x="10.49" y="45.28">1</tspan><tspan x="19.95" y="45.28">101001 0</tspan><tspan class="cls-10" x="98.64" y="45.28">1</tspan><tspan x="108.09" y="45.28">10</tspan><tspan class="cls-10" x="129.08" y="45.28">111</tspan><tspan x="157.43" y="45.28">1 </tspan><tspan x="0" y="67.92">0</tspan><tspan class="cls-10" x="10.49" y="67.92">1</tspan><tspan x="19.95" y="67.92">10</tspan><tspan class="cls-10" x="40.93" y="67.92">11</tspan><tspan x="59.84" y="67.92">10 00100000 </tspan><tspan x="0" y="90.56">010000</tspan><tspan class="cls-10" x="62.96" y="90.56">1</tspan><tspan x="72.41" y="90.56">1 0</tspan><tspan class="cls-10" x="98.64" y="90.56">1</tspan><tspan x="108.09" y="90.56">10</tspan><tspan class="cls-10" x="129.08" y="90.56">111</tspan><tspan x="157.43" y="90.56">1 </tspan><tspan x="0" y="113.2">0</tspan><tspan class="cls-10" x="10.49" y="113.2">1</tspan><tspan x="19.95" y="113.2">10</tspan><tspan class="cls-10" x="40.93" y="113.2">11</tspan><tspan x="59.84" y="113.2">10 0</tspan><tspan class="cls-10" x="96.56" y="113.2">11</tspan><tspan x="115.46" y="113.2">10100 </tspan><tspan x="0" y="135.84">0</tspan><tspan class="cls-10" x="10.49" y="135.84">11</tspan><tspan x="29.4" y="135.84">10010 0</tspan><tspan class="cls-10" x="97.6" y="135.84">1</tspan><tspan x="107.05" y="135.84">10</tspan><tspan class="cls-10" x="128.04" y="135.84">111</tspan><tspan x="156.39" y="135.84">1 </tspan><tspan x="0" y="158.48">0</tspan><tspan class="cls-10" x="10.49" y="158.48">1</tspan><tspan x="19.95" y="158.48">10</tspan><tspan class="cls-10" x="40.93" y="158.48">1</tspan><tspan x="50.38" y="158.48">100 00100000 </tspan><tspan x="0" y="181.13">01000</tspan><tspan class="cls-10" x="52.47" y="181.13">1</tspan><tspan x="61.92" y="181.13">10 0</tspan><tspan class="cls-10" x="98.64" y="181.13">1</tspan><tspan x="108.09" y="181.13">101001 </tspan><tspan x="0" y="203.77">0</tspan><tspan class="cls-10" x="10.49" y="203.77">1</tspan><tspan x="19.95" y="203.77">10</tspan><tspan class="cls-10" x="40.93" y="203.77">11</tspan><tspan x="59.84" y="203.77">10 0</tspan><tspan class="cls-10" x="96.56" y="203.77">1</tspan><tspan x="106.01" y="203.77">100001 </tspan></text><rect class="cls-14" x="252.02" y="215" width="209.16" height="260"/><rect class="cls-15" x="201.42" y="279.13" width="194.25" height="247.84"/><rect class="cls-7" x="210.19" y="285.97" width="176.73" height="234.16"/><text class="cls-9" transform="translate(213.19 308.54)">01010<tspan class="cls-10" x="52.47" y="0">1</tspan><tspan x="61.92" y="0">10 0</tspan><tspan class="cls-10" x="98.64" y="0">11</tspan><tspan x="117.54" y="0">10010 </tspan><tspan x="0" y="22.64">0</tspan><tspan class="cls-10" x="10.49" y="22.64">1</tspan><tspan x="19.95" y="22.64">100101 0</tspan><tspan class="cls-10" x="98.64" y="22.64">11</tspan><tspan x="117.54" y="22.64">100</tspan><tspan class="cls-10" x="149.02" y="22.64">1</tspan><tspan x="158.48" y="22.64">1 </tspan><tspan x="0" y="45.28">0</tspan><tspan class="cls-10" x="10.49" y="45.28">1</tspan><tspan x="19.95" y="45.28">101001 0</tspan><tspan class="cls-10" x="98.64" y="45.28">1</tspan><tspan x="108.09" y="45.28">10</tspan><tspan class="cls-10" x="129.08" y="45.28">111</tspan><tspan x="157.43" y="45.28">1 </tspan><tspan x="0" y="67.92">0</tspan><tspan class="cls-10" x="10.49" y="67.92">1</tspan><tspan x="19.95" y="67.92">10</tspan><tspan class="cls-10" x="40.93" y="67.92">11</tspan><tspan x="59.84" y="67.92">10 00100000 </tspan><tspan x="0" y="90.56">010000</tspan><tspan class="cls-10" x="62.96" y="90.56">1</tspan><tspan x="72.41" y="90.56">1 0</tspan><tspan class="cls-10" x="98.64" y="90.56">1</tspan><tspan x="108.09" y="90.56">10</tspan><tspan class="cls-10" x="129.08" y="90.56">111</tspan><tspan x="157.43" y="90.56">1 </tspan><tspan x="0" y="113.2">0</tspan><tspan class="cls-10" x="10.49" y="113.2">1</tspan><tspan x="19.95" y="113.2">10</tspan><tspan class="cls-10" x="40.93" y="113.2">11</tspan><tspan x="59.84" y="113.2">10 0</tspan><tspan class="cls-10" x="96.56" y="113.2">11</tspan><tspan x="115.46" y="113.2">10100 </tspan><tspan x="0" y="135.84">0</tspan><tspan class="cls-10" x="10.49" y="135.84">11</tspan><tspan x="29.4" y="135.84">10010 0</tspan><tspan class="cls-10" x="97.6" y="135.84">1</tspan><tspan x="107.05" y="135.84">10</tspan><tspan class="cls-10" x="128.04" y="135.84">111</tspan><tspan x="156.39" y="135.84">1 </tspan><tspan x="0" y="158.48">0</tspan><tspan class="cls-10" x="10.49" y="158.48">1</tspan><tspan x="19.95" y="158.48">10</tspan><tspan class="cls-10" x="40.93" y="158.48">1</tspan><tspan x="50.38" y="158.48">100 00100000 </tspan><tspan x="0" y="181.13">01000</tspan><tspan class="cls-10" x="52.47" y="181.13">1</tspan><tspan x="61.92" y="181.13">10 0</tspan><tspan class="cls-10" x="98.64" y="181.13">1</tspan><tspan x="108.09" y="181.13">101001 </tspan><tspan x="0" y="203.77">0</tspan><tspan class="cls-10" x="10.49" y="203.77">1</tspan><tspan x="19.95" y="203.77">10</tspan><tspan class="cls-10" x="40.93" y="203.77">11</tspan><tspan x="59.84" y="203.77">10 0</tspan><tspan class="cls-10" x="96.56" y="203.77">1</tspan><tspan x="106.01" y="203.77">100001 </tspan></text><rect class="cls-14" x="193.97" y="273.05" width="209.16" height="260"/><rect class="cls-16" x="143.37" y="337.18" width="194.25" height="247.84"/><text class="cls-9" transform="translate(155.3 366.68)">01010<tspan class="cls-10" x="52.47" y="0">1</tspan><tspan x="61.92" y="0">10 0</tspan><tspan class="cls-10" x="98.64" y="0">1</tspan><tspan x="108.09" y="0">100101 </tspan><tspan x="0" y="22.64">0</tspan><tspan class="cls-10" x="10.49" y="22.64">11</tspan><tspan x="29.4" y="22.64">10010 0</tspan><tspan class="cls-10" x="97.6" y="22.64">11</tspan><tspan x="116.5" y="22.64">100</tspan><tspan class="cls-10" x="147.98" y="22.64">1</tspan><tspan x="157.43" y="22.64">1 </tspan><tspan x="0" y="45.28">0</tspan><tspan class="cls-10" x="10.49" y="45.28">1</tspan><tspan x="19.95" y="45.28">101001 0</tspan><tspan class="cls-10" x="98.64" y="45.28">1</tspan><tspan x="108.09" y="45.28">10</tspan><tspan class="cls-10" x="129.08" y="45.28">111</tspan><tspan x="157.43" y="45.28">1 </tspan><tspan x="0" y="67.92">0</tspan><tspan class="cls-10" x="10.49" y="67.92">1</tspan><tspan x="19.95" y="67.92">10</tspan><tspan class="cls-10" x="40.93" y="67.92">11</tspan><tspan x="59.84" y="67.92">10 00100000 </tspan><tspan x="0" y="90.56">010000</tspan><tspan class="cls-10" x="62.96" y="90.56">1</tspan><tspan x="72.41" y="90.56">1 0</tspan><tspan class="cls-10" x="98.64" y="90.56">1</tspan><tspan x="108.09" y="90.56">10</tspan><tspan class="cls-10" x="129.08" y="90.56">111</tspan><tspan x="157.43" y="90.56">1 </tspan><tspan x="0" y="113.2">0</tspan><tspan class="cls-10" x="10.49" y="113.2">1</tspan><tspan x="19.95" y="113.2">10</tspan><tspan class="cls-10" x="40.93" y="113.2">11</tspan><tspan x="59.84" y="113.2">10 0</tspan><tspan class="cls-10" x="96.56" y="113.2">11</tspan><tspan x="115.46" y="113.2">10100 </tspan><tspan x="0" y="135.84">0</tspan><tspan class="cls-10" x="10.49" y="135.84">11</tspan><tspan x="29.4" y="135.84">10010 0</tspan><tspan class="cls-10" x="97.6" y="135.84">1</tspan><tspan x="107.05" y="135.84">10</tspan><tspan class="cls-10" x="128.04" y="135.84">111</tspan><tspan x="156.39" y="135.84">1 </tspan><tspan x="0" y="158.48">0</tspan><tspan class="cls-10" x="10.49" y="158.48">1</tspan><tspan x="19.95" y="158.48">10</tspan><tspan class="cls-10" x="40.93" y="158.48">1</tspan><tspan x="50.38" y="158.48">100 00100000 </tspan><tspan x="0" y="181.13">01000</tspan><tspan class="cls-10" x="52.47" y="181.13">1</tspan><tspan x="61.92" y="181.13">10 0</tspan><tspan class="cls-10" x="98.64" y="181.13">1</tspan><tspan x="108.09" y="181.13">101001 </tspan><tspan x="0" y="203.77">0</tspan><tspan class="cls-10" x="10.49" y="203.77">1</tspan><tspan x="19.95" y="203.77">10</tspan><tspan class="cls-10" x="40.93" y="203.77">11</tspan><tspan x="59.84" y="203.77">10 0</tspan><tspan class="cls-10" x="96.56" y="203.77">1</tspan><tspan x="106.01" y="203.77">100001 </tspan></text><rect class="cls-7" x="152.3" y="345" width="176.73" height="234.16"/><text class="cls-17" transform="translate(297.68 363.67)"><tspan class="cls-18">v</tspan><tspan x="8.52" y="0">.4</tspan></text><text class="cls-17" transform="translate(356.6 302.95)"><tspan class="cls-18">v</tspan><tspan x="8.52" y="0">.2</tspan></text><text class="cls-17" transform="translate(414.65 245.24)"><tspan class="cls-18">v</tspan><tspan x="8.52" y="0">.3</tspan></text><text class="cls-17" transform="translate(473.2 187.87)"><tspan class="cls-18">v</tspan><tspan x="8.52" y="0">.4</tspan></text><rect class="cls-19" x="19.03" y="11.26" width="40" height="40"/><rect class="cls-20" x="135.86" y="330.46" width="209.16" height="262.18"/><rect class="cls-21" x="19.03" y="176.97" width="25.1" height="24.51"/><rect class="cls-22" x="34.03" y="161.05" width="25" height="25"/><rect class="cls-23" x="24.12" y="89.47" width="28.29" height="28.29" transform="translate(-60.55 56.34) rotate(-44.1)"/><circle class="cls-24" cx="39.03" cy="263.3" r="12.5"/><circle class="cls-25" cx="39.03" cy="256.4" r="20"/><line class="cls-4" x1="76.23" y1="0.5" x2="76.23" y2="287.16"/></svg>