<svg id="Layer_1" data-name="Layer 1" xmlns="http://www.w3.org/2000/svg" viewBox="0 0 519.63 287.44"><defs><style>.cls-1{opacity:0.35;}.cls-12,.cls-2{fill:#e24b93;}.cls-3{fill:#23c9e5;}.cls-4{fill:#fff;}.cls-10,.cls-11,.cls-12,.cls-13,.cls-4,.cls-7,.cls-8,.cls-9{stroke:#000;}.cls-10,.cls-5{fill:#fcbd4c;}.cls-11,.cls-6{fill:#d1ef75;}.cls-13,.cls-7,.cls-8,.cls-9{fill:none;}.cls-8{stroke-width:0.18px;}.cls-9{stroke-miterlimit:10;}.cls-10,.cls-11,.cls-12,.cls-13,.cls-9{stroke-width:0.25px;}</style></defs><rect class="cls-1" x="19.03" y="11.26" width="40" height="40"/><rect class="cls-1" x="19.13" y="176.97" width="25" height="25"/><rect class="cls-2" x="76.23" y="238.9" width="110.38" height="35"/><circle class="cls-1" cx="39.03" cy="256.4" r="20"/><polygon class="cls-3" points="39.16 35.09 31.43 30.96 23.7 34.99 25.23 26.41 19.03 20.26 27.67 19.04 31.59 11.26 35.4 19.1 44.03 20.42 37.73 26.46 39.16 35.09"/><line class="cls-4" x1="186.62" y1="0.5" x2="186.62" y2="287.16"/><rect class="cls-5" x="75.55" y="163.99" width="222.14" height="35"/><line class="cls-4" x1="297.68" y1="0.39" x2="297.68" y2="287.05"/><line class="cls-4" x1="404.46" y1="0.5" x2="404.46" y2="287.16"/><rect class="cls-6" x="76.23" y="86.62" width="385.61" height="35"/><rect class="cls-3" x="75.55" y="13.76" width="443.59" height="35"/><rect class="cls-7" x="0.5" y="0.5" width="518.63" height="286.44"/><rect class="cls-8" x="19.03" y="11.26" width="40" height="40"/><rect class="cls-9" x="19.03" y="176.97" width="25.1" height="24.51"/><rect class="cls-10" x="34.03" y="161.05" width="25" height="25"/><rect class="cls-11" x="24.12" y="89.47" width="28.29" height="28.29" transform="translate(-60.55 56.34) rotate(-44.1)"/><circle class="cls-12" cx="39.03" cy="263.3" r="12.5"/><circle class="cls-13" cx="39.03" cy="256.4" r="20"/><line class="cls-4" x1="76.23" y1="0.5" x2="76.23" y2="287.16"/></svg>