<svg id="mnemonic" xmlns="http://www.w3.org/2000/svg" viewBox="0 0 145 145"><defs><style>.cls-1{fill:#d1ef75;}.cls-2{fill:#ffb417;}.cls-3{fill:#e62179;}.cls-4{fill:#23c9e5;}.cls-5{font-size:16px;fill:#fff;stroke:#000;stroke-miterlimit:10;stroke-width:0.25px;font-family:ArialNarrow-Bold, Arial Narrow;font-weight:700;}</style></defs><title>skills-management-process</title><path class="cls-1" d="M76.51,109.51v26.75s-58.77,0-62.8-62.06H39.48C45.11,111.65,76.51,109.51,76.51,109.51Z" transform="translate(-2.58 -2.5)"/><path class="cls-2" d="M76.51,38.88V12.13s-58.77,0-62.8,62.07H39.48C45.11,36.74,76.51,38.88,76.51,38.88Z" transform="translate(-2.58 -2.5)"/><path class="cls-3" d="M76.51,38.88V12.13s56.54,0,60.56,62.07l-25.66-1.11C105.77,35.64,76.51,38.88,76.51,38.88Z" transform="translate(-2.58 -2.5)"/><path class="cls-4" d="M76.51,109.51v26.75s58.78,0,62.81-62.06H113.55C107.92,111.65,76.51,109.51,76.51,109.51Z" transform="translate(-2.58 -2.5)"/><polygon class="cls-2" points="101.21 23.94 72.83 0 72.83 47.89 101.21 23.94"/><polygon class="cls-4" points="46.67 121.06 75.05 97.11 75.05 145 46.67 121.06"/><polygon class="cls-3" points="120.98 98.88 145 70.59 96.96 70.59 120.98 98.88"/><polygon class="cls-1" points="24.02 44.52 48.04 72.8 0 72.8 24.02 44.52"/><text class="cls-5" transform="matrix(0.8, -0.6, 0.6, 0.8, 34.61, 48.91)">PLAN</text><text class="cls-5" transform="matrix(0.8, -0.6, 0.6, 0.8, 82.24, 130.19)">CHECK</text><text class="cls-5" transform="matrix(0.56, 0.83, -0.83, 0.56, 103.65, 38.42)">DO</text><text class="cls-5" transform="matrix(0.56, 0.83, -0.83, 0.56, 20.96, 89.32)">ACT</text></svg>