<svg id="mnemonic" xmlns="http://www.w3.org/2000/svg" xmlns:xlink="http://www.w3.org/1999/xlink" viewBox="0 0 145 145"><defs><style>.cls-1{fill:none;}.cls-2{fill:#804933;}.cls-2,.cls-3,.cls-4,.cls-5,.cls-6{isolation:isolate;}.cls-15,.cls-3{fill:#35fa00;}.cls-3{stroke:#35fa00;}.cls-3,.cls-4,.cls-5,.cls-6{stroke-miterlimit:10;stroke-width:2.97px;opacity:0.5;}.cls-11,.cls-4{fill:#26c9ff;}.cls-4{stroke:#26c9ff;}.cls-10,.cls-5{fill:#ee3d8f;}.cls-5{stroke:#ee3d8f;}.cls-6,.cls-8{fill:#f37021;}.cls-6{stroke:#f37021;}.cls-7{fill:url(#radial-gradient);}.cls-10,.cls-13,.cls-15,.cls-8{fill-rule:evenodd;}.cls-9{fill:url(#radial-gradient-2);}.cls-12{fill:#061e26;}.cls-13{fill:#d9f5ff;}.cls-14{fill:#072600;}.cls-16{clip-path:url(#clip-path);}.cls-17{fill:#da1f26;}</style><radialGradient id="radial-gradient" cx="784.77" cy="1003.91" r="24.77" gradientTransform="translate(-327.51 -404.34) scale(0.45 0.46)" gradientUnits="userSpaceOnUse"><stop offset="0" stop-color="#360100" stop-opacity="0.85"/><stop offset="0.77" stop-color="#360100"/></radialGradient><radialGradient id="radial-gradient-2" cx="262.01" cy="627.64" r="10.98" gradientTransform="translate(-214.33 -620.62) scale(1.01 1.03)" gradientUnits="userSpaceOnUse"><stop offset="0" stop-color="#320008" stop-opacity="0.85"/><stop offset="0.77" stop-color="#320008"/></radialGradient><clipPath id="clip-path" transform="translate(-32.84 -31.72)"><rect class="cls-1" x="78.8" y="84.07" width="53.06" height="39.11"/></clipPath></defs><title>skills-graphics</title><path class="cls-2" d="M101.32,31.75a72.78,72.78,0,0,0-67.78,62,58.27,58.27,0,0,0-.68,10.56A67.2,67.2,0,0,0,35,121.87a65.82,65.82,0,0,0,5.3,14.27A69.54,69.54,0,0,0,49.87,151a102.09,102.09,0,0,0,9.31,9.18,72.38,72.38,0,0,0,36.88,16c4.72.62,10.43.74,12.06.3a12.45,12.45,0,0,0,6.55-4.15,11.8,11.8,0,0,0,2.68-8.39c-.18-3-1-4.92-3.31-7.63a13.78,13.78,0,0,1-2.46-4.84,14.64,14.64,0,0,1,0-5.75,12.26,12.26,0,0,1,6.78-8.16c2.25-1,2.14-1,13.41-1.13,5.61-.06,10.37-.15,10.58-.2l1.89-.33a40.71,40.71,0,0,0,32-28.49,46.25,46.25,0,0,0,1-19.12c-2.81-20.17-16.1-38-36-48.05a77.86,77.86,0,0,0-28.17-8.14C111,31.81,103.3,31.63,101.32,31.75Z" transform="translate(-32.84 -31.72)"/><path class="cls-3" d="M154.52,77.79a14.76,14.76,0,0,1,10.83,14.33,14.14,14.14,0,0,1-2.38,8,14.84,14.84,0,0,1-20.52,4.41l-.76-.52a16,16,0,0,1-5.32-7.43,14.94,14.94,0,0,1,9.8-18.73,12.51,12.51,0,0,1,1.6-.41A17.84,17.84,0,0,1,154.52,77.79Z" transform="translate(-32.84 -31.72)"/><path class="cls-4" d="M128.94,45.3a15,15,0,0,1,11.6,12,18.27,18.27,0,0,1-.38,6.87,15,15,0,0,1-10.64,10.18,16.24,16.24,0,0,1-7.34,0,15.11,15.11,0,0,1-10.74-10.74,16.89,16.89,0,0,1,0-7.42A15.11,15.11,0,0,1,123,45.28,20.9,20.9,0,0,1,128.94,45.3Z" transform="translate(-32.84 -31.72)"/><path class="cls-5" d="M89,45.57a15.11,15.11,0,0,1,10.19,10.6,17.2,17.2,0,0,1,0,7.42A15.11,15.11,0,0,1,88.48,74.32a16.29,16.29,0,0,1-7.35,0A15,15,0,0,1,70.48,64.13a18.42,18.42,0,0,1-.37-6.86,15.11,15.11,0,0,1,11.45-12A19.84,19.84,0,0,1,89,45.57Z" transform="translate(-32.84 -31.72)"/><path class="cls-6" d="M62.42,77.44a14.1,14.1,0,0,1,8.27,4.35,14,14,0,0,1,4.19,8.65,14.77,14.77,0,0,1-4.6,12.5A14.22,14.22,0,0,1,64,106.5a18.18,18.18,0,0,1-7.49.07A14.84,14.84,0,0,1,45.3,92.18,14.58,14.58,0,0,1,47.66,84,14.9,14.9,0,0,1,62.42,77.44Z" transform="translate(-32.84 -31.72)"/><rect class="cls-7" x="18.78" y="51.9" width="16.99" height="16.97"/><path class="cls-8" d="M50.84,82.81v18.55H69.39V82.81Zm.82.81h17v17h-17Z" transform="translate(-32.84 -31.72)"/><path class="cls-8" d="M57.28,93.32l-.62,2.36c0,.08,0,.08-.11.08H55.41c-.08,0-.08,0-.08-.13l2.18-7.9a2.36,2.36,0,0,0,.08-.65c0-.06,0-.08.06-.08h1.6s.08,0,.08.08l2.46,8.56s0,.1,0,.1H60.47s-.1,0-.1-.07l-.65-2.39ZM59.43,92c-.2-.88-.74-2.8-.91-3.71h0c-.15.93-.57,2.49-.87,3.71Zm3.48-4.41a.73.73,0,0,1,.68-.8h.1a.74.74,0,0,1,.74.74v.06a.74.74,0,0,1-.68.8.24.24,0,0,1-.12,0,.75.75,0,0,1-.75-.74v-.06Zm.1,1.82a.09.09,0,0,1,.08-.1h1.22s.08,0,.08.1v6.25c0,.08,0,.1-.08.1h-1.2s-.09,0-.1-.09h0Z" transform="translate(-32.84 -31.72)"/><rect class="cls-9" x="43.45" y="19.71" width="16.99" height="16.97"/><path class="cls-10" d="M75.51,50.62V69.18H94.06V50.62Zm.74.81h17v17h-17Z" transform="translate(-32.84 -31.72)"/><path class="cls-10" d="M82.54,63.49c0,.08,0,.1-.1.1h-1.2c-.08,0-.1,0-.1-.1V55a.1.1,0,0,1,.09-.1h1.21s.07,0,.07.1v8.51Zm1.35-3.09A3.13,3.13,0,0,1,86.79,57h.68V55c0-.05,0-.07.07-.07h1.28c.05,0,.08,0,.08.07v7.42a5.48,5.48,0,0,0,0,.81s0,.08-.09.08a4.43,4.43,0,0,1-2,.46C85.13,63.69,83.89,62.63,83.89,60.4Zm3.58-2.07a1.5,1.5,0,0,0-.47-.08c-1,0-1.68.74-1.68,2.1s.7,2.1,1.6,2.1a1.28,1.28,0,0,0,.55-.1Z" transform="translate(-32.84 -31.72)"/><path class="cls-11" d="M132.69,69.7h-13a3.6,3.6,0,0,1-3.56-3.64h0V53.3a3.59,3.59,0,0,1,3.53-3.64h13a3.6,3.6,0,0,1,3.56,3.64h0V66.05a3.58,3.58,0,0,1-3.51,3.65Z" transform="translate(-32.84 -31.72)"/><path class="cls-12" d="M132.35,68.83h-12.3a3.08,3.08,0,0,1-3-3.12h0V53.59a3.08,3.08,0,0,1,3-3.11h12.3a3.08,3.08,0,0,1,3,3.11V65.71a3.08,3.08,0,0,1-3,3.12Z" transform="translate(-32.84 -31.72)"/><path class="cls-13" d="M121.12,54.39s0-.08.08-.08c.53,0,1.29-.06,2.07-.06,2.23,0,3.25,1.27,3.25,2.89,0,2.13-1.48,3-3.36,3h-.65v3.22c0,.06,0,.08-.08.08H121.2c-.06,0-.08,0-.08-.08Zm1.42,4.46a3.86,3.86,0,0,0,.68,0c1,0,1.84-.34,1.84-1.68,0-1.07-.64-1.6-1.73-1.6h-.79Zm7.26-1c-.65,0-.87.34-.87.61s.14.51,1,1c1.29.62,1.68,1.23,1.68,2.13,0,1.34-1,2-2.33,2a3.57,3.57,0,0,1-1.67-.36c-.06,0-.06-.05-.06-.14V61.88c0-.09,0-.12.08-.06a3.07,3.07,0,0,0,1.68.51c.65,0,.9-.28.9-.65s-.2-.56-1-1c-1.15-.56-1.62-1.15-1.62-2.1a2,2,0,0,1,2.22-2,4,4,0,0,1,1.49.22.21.21,0,0,1,.08.17v1.15a.08.08,0,0,1-.07.08h-.06a2.71,2.71,0,0,0-1.49-.39Z" transform="translate(-32.84 -31.72)"/><rect class="cls-14" x="109.17" y="52.34" width="16.99" height="16.97"/><path class="cls-15" d="M141.23,83.28v18.55h18.55V83.28ZM142,84h17v17H142Z" transform="translate(-32.84 -31.72)"/><path class="cls-15" d="M143.68,87.64c0-.08,0-.1.08-.1.28,0,1.14-.06,2-.06,2.6,0,3.87,1.71,3.87,4.23,0,3.51-2.23,4.54-3.94,4.54h-2s-.08,0-.08-.11Zm1.4,7.34a3.53,3.53,0,0,0,.65,0c1.43,0,2.49-1,2.49-3.27s-1.09-3-2.44-3h-.7Zm9.81,1.25c-.08,0-.1,0-.13-.11-.39-2.18-.7-3.71-.84-4.8h0c-.15,1-.46,2.57-1,4.82a.1.1,0,0,1-.11.11h-1.25c-.08,0-.1,0-.13-.11l-1.37-6.24c0-.06,0-.11.07-.11h1.25a.1.1,0,0,1,.1.08,46.86,46.86,0,0,1,.75,4.85h0c.08-.68.36-2.1.93-4.82,0-.09,0-.11.1-.11h1.32c.06,0,.09,0,.09.11.43,2.56.74,4.2.8,4.85h0c.12-.83.28-2,.83-4.88,0-.06,0-.08.07-.08h1.17c.05,0,.08,0,.05.11l-1.53,6.24c0,.09,0,.11-.1.11Z" transform="translate(-32.84 -31.72)"/><g class="cls-16"><path class="cls-17" d="M131.85,102.77v1.78c0,.08-.07.23-.07.3a22.62,22.62,0,0,1-.3,2.3,17.38,17.38,0,0,1-2.59,6.83,19.21,19.21,0,0,1-8.09,7.27,18.61,18.61,0,0,1-6.24,1.86c-.52.07-1,.07-1.41.14H94.6c-.07,0-.22-.07-.29-.07a13.74,13.74,0,0,1-5.42-1.34,16.76,16.76,0,0,1-8.39-7.94,15.76,15.76,0,0,1-1.56-5.12c-.07-.44-.07-.89-.14-1.33v-1.71c0-.07.07-.22.07-.3a15.2,15.2,0,0,1,1-4.75,16.62,16.62,0,0,1,18-10.61c.15,0,.22,0,.3-.07a18.67,18.67,0,0,1,5.42-3.94,18.38,18.38,0,0,1,6.23-1.85c.52-.07,1-.07,1.56-.15h1.63c.07,0,.22.08.3.08.81.07,1.56.14,2.37.29a17.5,17.5,0,0,1,6.83,2.6,19.34,19.34,0,0,1,7.35,8.09,18.38,18.38,0,0,1,1.85,6.23c0,.45.07.89.07,1.41m-29.6-11.28h0a32.18,32.18,0,0,1,3.11,1.93h.3A12.28,12.28,0,0,1,122,96.24a11.74,11.74,0,0,1,2.44,9.43,12.51,12.51,0,0,1-3,6.23,12.11,12.11,0,0,1-10.91,4,11.59,11.59,0,0,1-6.83-3.42c-2.45-2.45-4.9-4.89-7.27-7.34a1.94,1.94,0,0,0-1.19-.67,1.79,1.79,0,0,0-1.93,1,1.71,1.71,0,0,0,.37,2.08c2.67,2.67,5.42,5.34,8.09,8a12.64,12.64,0,0,0,1.48,1.26,13.35,13.35,0,0,0,6.61,2.52,15.84,15.84,0,0,0,14.25-26A15.45,15.45,0,0,0,110.71,88a14.75,14.75,0,0,0-8.46,3.49m-1.34,28-.22-.22-3.34-3.12a.85.85,0,0,0-.74-.3,12.45,12.45,0,0,1-3.34-.22A9.32,9.32,0,0,1,97,97.35a9.47,9.47,0,0,1,5,2.6c1.71,1.78,3.42,3.49,5.2,5.2a1.72,1.72,0,0,0,1.41.52,1.8,1.8,0,0,0,1.48-1.12,1.58,1.58,0,0,0-.37-1.85c-1.85-1.86-3.56-3.71-5.42-5.49a12.19,12.19,0,0,0-12.69-3,12.86,12.86,0,0,0,3.94,25.15h5.12c0,.15.07.08.22.08" transform="translate(-32.84 -31.72)"/></g></svg>