<svg id="Layer_1" data-name="Layer 1" xmlns="http://www.w3.org/2000/svg" viewBox="0 0 412 246"><defs><style>.cls-1,.cls-11,.cls-12,.cls-13,.cls-14{fill:none;}.cls-1{stroke:#000;}.cls-1,.cls-12,.cls-13,.cls-14,.cls-16{stroke-miterlimit:10;}.cls-2{opacity:0.25;}.cls-3{fill:#742774;}.cls-4{fill:#37c6d0;}.cls-5{fill:#036c70;}.cls-6{fill:#1a9ba1;}.cls-7{opacity:0.1;}.cls-7,.cls-8{isolation:isolate;}.cls-8{opacity:0.2;}.cls-9{fill:#03787c;}.cls-10{fill:#fff;}.cls-12,.cls-13,.cls-14{stroke:#742774;}.cls-12{stroke-width:2.5px;}.cls-13{stroke-width:6px;}.cls-14{stroke-width:2px;}.cls-15{fill:#5558af;}.cls-16,.cls-17{fill:#edbd11;}.cls-16{stroke:#edbd11;stroke-width:0.5px;}</style></defs><title>skills-program-ms-chart</title><line class="cls-1" x1="387.33" y1="222.94" x2="62.33" y2="222.94"/><path d="M40.34,237.84H37.61v2.42h2.53V241H37.61v3.1h-.82v-7h3.55Z"/><path d="M46.69,244.1h-1l-1.17-2a4.26,4.26,0,0,0-.31-.47,2.38,2.38,0,0,0-.31-.32,1,1,0,0,0-.34-.17,1.37,1.37,0,0,0-.42-.06h-.67v3h-.82v-7h2.09a2.87,2.87,0,0,1,.85.11,1.86,1.86,0,0,1,.67.35,1.71,1.71,0,0,1,.45.58,2.1,2.1,0,0,1,.16.82,2,2,0,0,1-.11.67,1.74,1.74,0,0,1-.31.55,1.91,1.91,0,0,1-.49.4,2.28,2.28,0,0,1-.64.27v0a2.14,2.14,0,0,1,.3.17,1.88,1.88,0,0,1,.25.24c.08.09.15.2.23.31l.26.4Zm-4.2-6.26v2.54H43.6a1.7,1.7,0,0,0,.57-.09,1.42,1.42,0,0,0,.45-.27,1.19,1.19,0,0,0,.3-.43A1.4,1.4,0,0,0,45,239a1.12,1.12,0,0,0-.36-.88,1.6,1.6,0,0,0-1.06-.31Z"/><path d="M51.36,244.1H47.65v-7h3.56v.74H48.47v2.33H51v.74H48.47v2.45h2.89Z"/><path d="M52.38,243.82v-1a2,2,0,0,0,.4.26,3,3,0,0,0,.49.2,3.14,3.14,0,0,0,.51.12,3,3,0,0,0,.48,0,1.92,1.92,0,0,0,1.13-.28,1,1,0,0,0,.25-1.3,1.54,1.54,0,0,0-.34-.39,4.71,4.71,0,0,0-.52-.33l-.65-.33c-.24-.13-.47-.25-.68-.38a3.06,3.06,0,0,1-.55-.42,1.71,1.71,0,0,1-.37-.52A1.73,1.73,0,0,1,52.6,238a1.94,1.94,0,0,1,.55-.59,2.75,2.75,0,0,1,.78-.34,3.8,3.8,0,0,1,.89-.11,3.35,3.35,0,0,1,1.51.25v.92a2.77,2.77,0,0,0-1.59-.43,2.48,2.48,0,0,0-.54.06,1.64,1.64,0,0,0-.47.18,1,1,0,0,0-.35.33.91.91,0,0,0-.13.49,1,1,0,0,0,.1.46,1.25,1.25,0,0,0,.3.36,3.83,3.83,0,0,0,.47.31l.65.33.71.39a3.09,3.09,0,0,1,.59.46,2,2,0,0,1,.41.55,1.52,1.52,0,0,1,.15.69,1.71,1.71,0,0,1-.21.88,1.58,1.58,0,0,1-.54.58,2.5,2.5,0,0,1-.8.33,4.75,4.75,0,0,1-.94.1l-.41,0a4.33,4.33,0,0,1-.5-.08,3.36,3.36,0,0,1-.48-.13A1.45,1.45,0,0,1,52.38,243.82Z"/><path d="M63.29,244.1h-.82v-3.19H58.84v3.19H58v-7h.82v3.07h3.63V237.1h.82Z"/><path d="M72.26,244.1h-.82v-4.7c0-.37,0-.82.07-1.36h0a3.28,3.28,0,0,1-.21.68l-2.39,5.38h-.4l-2.39-5.34a4.1,4.1,0,0,1-.21-.72h0c0,.28,0,.74,0,1.37v4.69h-.79v-7h1.09L68.35,242a5.75,5.75,0,0,1,.33.84h0c.14-.38.25-.67.33-.86l2.19-4.86h1Z"/><path d="M79.52,244.1h-.91l-.74-2h-3l-.7,2h-.91l2.69-7h.85Zm-1.92-2.7-1.1-3a3.27,3.27,0,0,1-.1-.47h0a2.88,2.88,0,0,1-.12.47l-1.08,3Z"/><path d="M86.2,244.1h-1l-3.6-5.58a2.64,2.64,0,0,1-.23-.44h0a6.5,6.5,0,0,1,0,1v5.06h-.82v-7h1.07l3.5,5.49a4.12,4.12,0,0,1,.28.47h0a8.32,8.32,0,0,1,0-1V237.1h.82Z"/><path d="M144.77,243.88v-1a3.07,3.07,0,0,0,.4.26,4.19,4.19,0,0,0,.49.2,4.37,4.37,0,0,0,.52.12,2.71,2.71,0,0,0,.47,0,1.88,1.88,0,0,0,1.14-.28,1,1,0,0,0,.37-.8.91.91,0,0,0-.13-.5,1.33,1.33,0,0,0-.34-.38,2.9,2.9,0,0,0-.52-.33l-.65-.34c-.24-.12-.47-.25-.68-.37a3.06,3.06,0,0,1-.55-.42,1.84,1.84,0,0,1-.37-.52,1.62,1.62,0,0,1-.14-.68,1.64,1.64,0,0,1,.21-.84,1.82,1.82,0,0,1,.56-.58,2.31,2.31,0,0,1,.78-.34,3.29,3.29,0,0,1,.89-.11,3.55,3.55,0,0,1,1.51.24v.93a2.75,2.75,0,0,0-1.6-.43,3.17,3.17,0,0,0-.53.05,1.46,1.46,0,0,0-.48.19,1,1,0,0,0-.34.32.88.88,0,0,0-.14.49,1.12,1.12,0,0,0,.1.47,1.1,1.1,0,0,0,.3.35,2.67,2.67,0,0,0,.48.32l.64.33q.38.18.72.39a3.4,3.4,0,0,1,.59.45,2.09,2.09,0,0,1,.4.55,1.6,1.6,0,0,1,.15.7,1.8,1.8,0,0,1-.2.87,1.73,1.73,0,0,1-.55.59,2.3,2.3,0,0,1-.79.32,4.19,4.19,0,0,1-.95.1l-.41,0a4.61,4.61,0,0,1-.5-.07l-.48-.13A1.84,1.84,0,0,1,144.77,243.88Z"/><path d="M153.24,244.28a3.06,3.06,0,0,1-2.39-1,3.62,3.62,0,0,1-.89-2.55,3.85,3.85,0,0,1,.91-2.7,3.19,3.19,0,0,1,2.48-1,3,3,0,0,1,2.34,1,3.66,3.66,0,0,1,.89,2.56,3.91,3.91,0,0,1-.91,2.71A3.15,3.15,0,0,1,153.24,244.28Zm.06-6.49a2.27,2.27,0,0,0-1.8.79,3.53,3.53,0,0,0,0,4.18,2.19,2.19,0,0,0,1.75.78,2.3,2.3,0,0,0,1.81-.75,3,3,0,0,0,.67-2.1,3.23,3.23,0,0,0-.65-2.15A2.21,2.21,0,0,0,153.3,237.79Z"/><path d="M158.77,241.52v2.65H158v-7h1.93a2.56,2.56,0,0,1,1.74.55,2,2,0,0,1,.62,1.54,2.1,2.1,0,0,1-.69,1.63,2.6,2.6,0,0,1-1.85.64Zm0-3.61v2.87h.86a1.92,1.92,0,0,0,1.3-.39,1.38,1.38,0,0,0,.45-1.1c0-.92-.55-1.38-1.64-1.38Z"/><path d="M168.82,244.17H168V241h-3.63v3.2h-.82v-7h.82v3.07H168v-3.07h.82Z"/><path d="M177.79,244.17H177v-4.7c0-.37,0-.83.07-1.36h0a4.57,4.57,0,0,1-.21.67l-2.4,5.39H174l-2.38-5.35a3.7,3.7,0,0,1-.21-.71h0c0,.28,0,.73,0,1.37v4.69h-.79v-7h1.09l2.15,4.89a6.76,6.76,0,0,1,.32.84h0c.14-.39.25-.68.33-.86l2.2-4.87h1Z"/><path d="M182.46,244.28a3.06,3.06,0,0,1-2.39-1,3.63,3.63,0,0,1-.9-2.55,3.86,3.86,0,0,1,.92-2.7,3.17,3.17,0,0,1,2.48-1,3,3,0,0,1,2.34,1,3.66,3.66,0,0,1,.89,2.56,3.91,3.91,0,0,1-.91,2.71A3.15,3.15,0,0,1,182.46,244.28Zm0-6.49a2.26,2.26,0,0,0-1.79.79,3.53,3.53,0,0,0,0,4.18,2.19,2.19,0,0,0,1.75.78,2.3,2.3,0,0,0,1.81-.75,3.08,3.08,0,0,0,.67-2.1,3.23,3.23,0,0,0-.65-2.15A2.22,2.22,0,0,0,182.51,237.79Z"/><path d="M192.19,244.17h-1l-1.18-2a3.05,3.05,0,0,0-.31-.46,1.58,1.58,0,0,0-.31-.32,1.24,1.24,0,0,0-.34-.18,1.7,1.7,0,0,0-.41-.05H188v3h-.82v-7h2.09a2.86,2.86,0,0,1,.85.12,1.72,1.72,0,0,1,.67.35,1.62,1.62,0,0,1,.45.58,1.91,1.91,0,0,1,.16.82,2,2,0,0,1-.11.67,1.81,1.81,0,0,1-.31.54,1.94,1.94,0,0,1-.49.41,2.45,2.45,0,0,1-.64.26v0a1.09,1.09,0,0,1,.3.18,1.88,1.88,0,0,1,.25.24,1.92,1.92,0,0,1,.23.31c.08.11.16.25.26.4Zm-4.2-6.26v2.53h1.12a1.69,1.69,0,0,0,.56-.09,1.24,1.24,0,0,0,.46-.27,1.17,1.17,0,0,0,.29-.42,1.3,1.3,0,0,0,.11-.56,1.1,1.1,0,0,0-.36-.88,1.57,1.57,0,0,0-1-.31Z"/><path d="M196.86,244.17h-3.71v-7h3.56v.75H194v2.32h2.53V241H194v2.45h2.89Z"/><path d="M264.07,241.62a3.09,3.09,0,0,1-.53,1.94,1.68,1.68,0,0,1-1.41.69,1.61,1.61,0,0,1-.67-.12v-.81a1.1,1.1,0,0,0,.68.19c.74,0,1.11-.63,1.11-1.88v-4.5h.82Z"/><path d="M271,241.3c0,2-.89,2.95-2.66,2.95s-2.55-.95-2.55-2.84v-4.28h.82v4.23c0,1.43.61,2.15,1.82,2.15s1.75-.69,1.75-2.08v-4.3H271Z"/><path d="M278.36,244.13h-1l-3.61-5.58a2.58,2.58,0,0,1-.22-.44h0a6.5,6.5,0,0,1,0,1v5.06h-.82v-7h1.06l3.51,5.49a5.27,5.27,0,0,1,.28.47h0a7.71,7.71,0,0,1,0-1v-4.93h.82Z"/><path d="M281,244.13h-.82v-7H281Z"/><path d="M285.68,244.25a3.07,3.07,0,0,1-2.38-1,3.65,3.65,0,0,1-.9-2.56,3.89,3.89,0,0,1,.91-2.69,3.2,3.2,0,0,1,2.49-1,3,3,0,0,1,2.34,1,3.64,3.64,0,0,1,.88,2.55,3.83,3.83,0,0,1-.91,2.71A3.1,3.1,0,0,1,285.68,244.25Zm.06-6.5a2.25,2.25,0,0,0-1.79.8,3.54,3.54,0,0,0,0,4.17,2.18,2.18,0,0,0,1.75.79,2.3,2.3,0,0,0,1.82-.75,3.07,3.07,0,0,0,.66-2.1,3.23,3.23,0,0,0-.64-2.15A2.23,2.23,0,0,0,285.74,237.75Z"/><path d="M295.42,244.13h-1l-1.17-2a5.49,5.49,0,0,0-.31-.47,1.81,1.81,0,0,0-.31-.31,1.24,1.24,0,0,0-.34-.18,1.37,1.37,0,0,0-.42-.06h-.67v3h-.82v-7h2.09a2.91,2.91,0,0,1,.85.12,1.93,1.93,0,0,1,.67.34,1.66,1.66,0,0,1,.45.59,2,2,0,0,1,.16.82,2.09,2.09,0,0,1-.11.67,2.05,2.05,0,0,1-.31.54,1.94,1.94,0,0,1-.49.41,2.6,2.6,0,0,1-.64.26v0a1.49,1.49,0,0,1,.3.18,1.34,1.34,0,0,1,.25.23l.23.31.26.41Zm-4.2-6.26v2.54h1.11a1.7,1.7,0,0,0,.57-.09,1.13,1.13,0,0,0,.45-.27,1.15,1.15,0,0,0,.3-.42,1.48,1.48,0,0,0,.11-.57,1.07,1.07,0,0,0-.37-.87,1.55,1.55,0,0,0-1.05-.32Z"/><path d="M369.23,243.92v-1a2,2,0,0,0,.4.26,3,3,0,0,0,.49.2,4.7,4.7,0,0,0,.51.12,3,3,0,0,0,.48.05,1.89,1.89,0,0,0,1.13-.28,1,1,0,0,0,.38-.81.88.88,0,0,0-.13-.49,1.54,1.54,0,0,0-.34-.39,4.71,4.71,0,0,0-.52-.33L371,241c-.24-.13-.47-.25-.68-.38a3.06,3.06,0,0,1-.55-.42,1.71,1.71,0,0,1-.37-.52,1.73,1.73,0,0,1,.07-1.51,1.94,1.94,0,0,1,.55-.59,2.75,2.75,0,0,1,.78-.34,3.87,3.87,0,0,1,.89-.11,3.32,3.32,0,0,1,1.51.25v.92a2.69,2.69,0,0,0-1.59-.43,2.48,2.48,0,0,0-.54.06,1.76,1.76,0,0,0-.47.18,1.1,1.1,0,0,0-.35.33.91.91,0,0,0-.13.49,1.11,1.11,0,0,0,.1.46,1.25,1.25,0,0,0,.3.36,3.83,3.83,0,0,0,.47.31l.65.33a6.85,6.85,0,0,1,.71.39,2.81,2.81,0,0,1,.59.46,2,2,0,0,1,.41.55,1.52,1.52,0,0,1,.15.69,1.71,1.71,0,0,1-.21.88,1.58,1.58,0,0,1-.54.58,2.5,2.5,0,0,1-.8.33,4.75,4.75,0,0,1-.94.1l-.41,0a4.33,4.33,0,0,1-.5-.08,3.36,3.36,0,0,1-.48-.13A1.86,1.86,0,0,1,369.23,243.92Z"/><path d="M378.58,244.2h-3.71v-7h3.56v.74h-2.74v2.33h2.53V241h-2.53v2.46h2.89Z"/><path d="M385.58,244.2h-1l-3.6-5.58a2.64,2.64,0,0,1-.23-.44h0a6.5,6.5,0,0,1,0,1v5.06h-.82v-7H381l3.5,5.49c.15.23.24.38.29.47h0a8.32,8.32,0,0,1,0-1V237.2h.82Z"/><path d="M388.23,244.2h-.82v-7h.82Z"/><path d="M392.9,244.32a3.06,3.06,0,0,1-2.39-1,3.61,3.61,0,0,1-.9-2.55,3.88,3.88,0,0,1,.92-2.7,3.17,3.17,0,0,1,2.48-1,3,3,0,0,1,2.34,1,3.65,3.65,0,0,1,.89,2.55,3.89,3.89,0,0,1-.91,2.71A3.16,3.16,0,0,1,392.9,244.32Zm.05-6.5a2.27,2.27,0,0,0-1.79.8,3.06,3.06,0,0,0-.69,2.09,3.1,3.1,0,0,0,.68,2.08,2.17,2.17,0,0,0,1.75.79,2.3,2.3,0,0,0,1.81-.75,3.05,3.05,0,0,0,.67-2.11,3.2,3.2,0,0,0-.65-2.14A2.2,2.2,0,0,0,393,237.82Z"/><path d="M402.63,244.2h-1l-1.18-2a3.19,3.19,0,0,0-.31-.47,1.89,1.89,0,0,0-.31-.32,1,1,0,0,0-.34-.17,1.31,1.31,0,0,0-.41-.06h-.68v3h-.82v-7h2.09a2.87,2.87,0,0,1,.85.11,1.86,1.86,0,0,1,.67.35,1.71,1.71,0,0,1,.45.58,1.94,1.94,0,0,1,.16.82,2,2,0,0,1-.11.67,1.74,1.74,0,0,1-.31.55,1.91,1.91,0,0,1-.49.4,2.47,2.47,0,0,1-.64.27v0a1.39,1.39,0,0,1,.3.17,1.88,1.88,0,0,1,.25.24,2.49,2.49,0,0,1,.23.31l.26.4Zm-4.2-6.26v2.54h1.12a1.56,1.56,0,0,0,.57-.1,1.43,1.43,0,0,0,.45-.26,1.3,1.3,0,0,0,.29-.43,1.25,1.25,0,0,0,.11-.56,1.12,1.12,0,0,0-.36-.88,1.57,1.57,0,0,0-1.05-.31Z"/><g class="cls-2"><line class="cls-1" x1="170.41" y1="2.09" x2="170.25" y2="223"/><line class="cls-1" x1="278.41" y1="0.82" x2="278.25" y2="221.72"/><line class="cls-1" x1="387.41" y1="2.09" x2="387.25" y2="223"/></g><rect class="cls-3" x="62.49" y="73.7" width="269.51" height="27"/><rect class="cls-4" x="62.99" y="20.2" width="324.01" height="27"/><circle class="cls-5" cx="29.67" cy="24.09" r="13.36"/><circle class="cls-6" cx="42.15" cy="35.87" r="11.43"/><circle class="cls-4" cx="31.08" cy="46.59" r="9.14"/><path class="cls-7" d="M32,20.57H16.77a13.38,13.38,0,0,0,12.9,16.88c.39,0,.77,0,1.16-.05v.05a9.14,9.14,0,0,0-8.9,9.14c0,.24,0,.47,0,.7H32a1.88,1.88,0,0,0,1.88-1.87v-23A1.88,1.88,0,0,0,32,20.57Z"/><path class="cls-8" d="M30.62,22H16.48a13.33,13.33,0,0,0,13.2,15.47,11.25,11.25,0,0,0,1.16-.05v.06a9.15,9.15,0,0,0-8.9,9.39,9,9,0,0,0,.25,1.86h8.43a1.88,1.88,0,0,0,1.87-1.88v-23A1.88,1.88,0,0,0,30.62,22Z"/><path class="cls-8" d="M30.62,22H16.48a13.39,13.39,0,0,0,13.2,15.48,11.27,11.27,0,0,0,1.16-.06v.06A9.13,9.13,0,0,0,22,45.9h8.65A1.88,1.88,0,0,0,32.49,44V23.86A1.88,1.88,0,0,0,30.62,22Z"/><path class="cls-8" d="M29.2,22H16.47a13.38,13.38,0,0,0,11.1,15.31,13.52,13.52,0,0,0,2.1.17,11.12,11.12,0,0,0,1.16-.06v.06A9.13,9.13,0,0,0,22,45.9H29.2A1.89,1.89,0,0,0,31.08,44V23.86A1.88,1.88,0,0,0,29.2,22Z"/><path class="cls-9" d="M10.45,22H29.2a1.88,1.88,0,0,1,1.88,1.88h0V42.61a1.88,1.88,0,0,1-1.88,1.87H10.45a1.87,1.87,0,0,1-1.87-1.87h0V23.86A1.88,1.88,0,0,1,10.45,22Z"/><path class="cls-10" d="M16.55,33a3.76,3.76,0,0,1-1.16-1.22,3.35,3.35,0,0,1-.4-1.67,3.24,3.24,0,0,1,.75-2.17,4.35,4.35,0,0,1,2-1.3,8.4,8.4,0,0,1,2.72-.42,10.17,10.17,0,0,1,3.59.5v2.53a5.7,5.7,0,0,0-1.62-.66,8.16,8.16,0,0,0-1.9-.23,4.22,4.22,0,0,0-1.95.41,1.29,1.29,0,0,0-.77,1.18,1.19,1.19,0,0,0,.32.83,3.27,3.27,0,0,0,.89.63c.37.18.92.42,1.65.73l.24.09a13.41,13.41,0,0,1,2.08,1,3.77,3.77,0,0,1,1.24,1.24,3.6,3.6,0,0,1,.44,1.88,3.45,3.45,0,0,1-.7,2.25,3.84,3.84,0,0,1-1.88,1.26,8.31,8.31,0,0,1-2.67.39,13.1,13.1,0,0,1-2.42-.2,8.4,8.4,0,0,1-2-.57V36.82a6.41,6.41,0,0,0,2,1,7.77,7.77,0,0,0,2.19.35,3.81,3.81,0,0,0,2-.42,1.35,1.35,0,0,0,.67-1.19,1.3,1.3,0,0,0-.38-.91,3.68,3.68,0,0,0-1-.72c-.44-.23-1.09-.52-1.95-.88a10.34,10.34,0,0,1-1.95-1Z"/><path class="cls-11" d="M8.58,10.73h45v45h-45Z"/><rect class="cls-3" x="34.21" y="84.8" width="6.98" height="6.98" rx="1.16" transform="translate(73.47 -0.8) rotate(45)"/><path class="cls-12" d="M14.34,100.18c-1.07,0-3.37-.38-4.56-1.76s-.9-2.77-.87-4.52c0-.89,0-10.79,0-16.59a6.88,6.88,0,0,1,1.18-4.38c1.14-1.55,3.37-1.18,4.36-1.18,1.37,0,32.44.12,33.89.15.52,0,3.19-.14,4.49,1.39a6.1,6.1,0,0,1,.9,3.62c.05,4.91.15,9.35.15,17.68a5.29,5.29,0,0,1-1.07,4c-1.26,1.71-2.75,1.71-4.52,1.59"/><rect class="cls-3" x="40.77" y="91.35" width="6.98" height="6.98" rx="1.16" transform="translate(80.02 -3.52) rotate(45)"/><rect class="cls-3" x="34.21" y="97.9" width="6.98" height="6.98" rx="1.16" transform="translate(82.74 3.04) rotate(45)"/><rect class="cls-13" x="18.78" y="88.86" width="11.96" height="11.96" rx="0.36" transform="translate(74.31 10.27) rotate(45)"/><rect class="cls-14" x="20.77" y="90.88" width="7.98" height="7.98" rx="1.33" transform="translate(74.33 10.28) rotate(45)"/><rect class="cls-15" x="62.22" y="127.73" width="216.34" height="27"/><path class="cls-15" d="M47.94,137a4.12,4.12,0,0,0,1.28.86,4,4,0,1,0-2.15-2.15,4.19,4.19,0,0,0,.87,1.29Zm-1.18,3.73v12.14h2a12.09,12.09,0,0,0,2.07-.2,6.62,6.62,0,0,0,2-.68,4.63,4.63,0,0,0,1.46-1.29,3.34,3.34,0,0,0,.57-2v-8Zm-6.55-5.08a4,4,0,0,0,1.56-7.75,4,4,0,0,0-3.12,0c-.37.16-.48.36-1,.61v6.21c.51.25.62.45,1,.61a4,4,0,0,0,1.56.32Zm-2.55,20.42c.51.11.69.2,1.05.25a9.39,9.39,0,0,0,1.19.08,8.59,8.59,0,0,0,1.82-.19,5.25,5.25,0,0,0,1.73-.68,4,4,0,0,0,1.29-1.28,3.69,3.69,0,0,0,.5-2v-14H37.66v17.87ZM9.85,159.92l26.28,4.55V120L9.85,124.54Z"/><path class="cls-10" d="M29.07,133.63l-12.14.74v2.8l4.56-.18v13l3,.17V136.87l4.56-.2Z"/><path class="cls-11" d="M16.93,202.41v4.44H48.55v1.77a5.14,5.14,0,0,0,4.79-5.11v-1.1Z"/><path class="cls-11" d="M16.93,206.85v1.81H48.15c.14,0,.27,0,.4,0v-1.77Z"/><path class="cls-11" d="M16.93,202.41v4.44H48.55v1.77a5.14,5.14,0,0,0,4.79-5.11v-1.1Z"/><path class="cls-11" d="M16.93,206.85v1.81H48.15c.14,0,.27,0,.4,0v-1.77Z"/><path class="cls-16" d="M48.55,178.24H14.22a5.34,5.34,0,0,0-5.34,5.34v21.11A5.32,5.32,0,0,0,13.55,210v-.55a5.16,5.16,0,0,1-4-5V184.05a5.17,5.17,0,0,1,5.19-5.15H48.15a5.16,5.16,0,0,1,5.19,5.15v20.37a5.15,5.15,0,0,1-4.79,5.11v.5a5.33,5.33,0,0,0,5.33-5.34V183.58A5.33,5.33,0,0,0,48.55,178.24Z"/><path class="cls-17" d="M38,213.6a2.89,2.89,0,0,1-2.87,2.87,2.8,2.8,0,0,1-2.87-2.87V201.29a2.89,2.89,0,0,1,2.87-2.88A2.8,2.8,0,0,1,38,201.29Z"/><path class="cls-17" d="M29.88,213.6A2.89,2.89,0,0,1,27,216.47a2.7,2.7,0,0,1-2.74-2.87V194.86A2.9,2.9,0,0,1,27.15,192,2.81,2.81,0,0,1,30,194.86V213.6Z"/><path class="cls-17" d="M22,213.6a2.89,2.89,0,0,1-2.87,2.87,2.8,2.8,0,0,1-2.87-2.87v-6.71a2.87,2.87,0,0,1,5.74,0Z"/><path class="cls-17" d="M45.93,213.6a2.81,2.81,0,1,1-5.61,0V188.7a2.88,2.88,0,0,1,5.75,0v24.9Z"/><rect class="cls-17" x="62.22" y="180.73" width="216.34" height="27"/><line class="cls-1" x1="62.49" y1="1.7" x2="62.5" y2="222.5"/></svg>