<svg id="Layer_1" data-name="Layer 1" xmlns="http://www.w3.org/2000/svg" viewBox="0 0 150 150"><defs><style>.cls-1{fill:#eb3c00;opacity:0.25;}.cls-2{fill:#036c70;}.cls-3{fill:#1a9ba1;}.cls-4{fill:#37c6d0;}.cls-5{opacity:0.1;}.cls-5,.cls-6{isolation:isolate;}.cls-6{opacity:0.2;}.cls-7{fill:#03787c;}.cls-8{fill:#fff;}.cls-12,.cls-13,.cls-14,.cls-9{fill:none;}.cls-10{fill:#5558af;}.cls-11{fill:#742774;}.cls-12,.cls-13,.cls-14{stroke:#742774;}.cls-12,.cls-13,.cls-14,.cls-15{stroke-miterlimit:10;}.cls-12{stroke-width:2.5px;}.cls-13{stroke-width:6px;}.cls-14{stroke-width:2px;}.cls-15,.cls-16{fill:#edbd11;}.cls-15{stroke:#edbd11;stroke-width:0.5px;}</style></defs><title>skills-program-ms</title><path class="cls-1" d="M13.07,120.44V29.67L93.36,0,137,14V136.15L93.36,149.3,13.07,120.44l80.29,9.66V24.44L41,36.66v71.56Z"/><circle class="cls-2" cx="112.13" cy="31.47" r="20.78"/><circle class="cls-3" cx="131.54" cy="49.79" r="17.77"/><circle class="cls-4" cx="114.31" cy="66.47" r="14.22"/><path class="cls-5" d="M115.77,26H92.06a20.81,20.81,0,0,0,20.06,26.26c.61,0,1.21,0,1.8-.08v.08a14.23,14.23,0,0,0-13.84,14.22c0,.37,0,.74,0,1.1h15.64a2.94,2.94,0,0,0,2.92-2.92V28.91A2.94,2.94,0,0,0,115.77,26Z"/><path class="cls-6" d="M113.6,28.19h-22A20.79,20.79,0,0,0,108.87,52a19.85,19.85,0,0,0,3.27.26c.6,0,1.2,0,1.8-.08v.09a14.23,14.23,0,0,0-13.84,14.61,14,14,0,0,0,.37,2.89H113.6a2.92,2.92,0,0,0,2.91-2.92V31.11A2.92,2.92,0,0,0,113.6,28.19Z"/><path class="cls-6" d="M113.6,28.19h-22a20.75,20.75,0,0,0,20.54,24.07c.6,0,1.2,0,1.8-.07v.08a14.22,14.22,0,0,0-13.81,13.12H113.6a2.91,2.91,0,0,0,2.91-2.91V31.11A2.92,2.92,0,0,0,113.6,28.19Z"/><path class="cls-6" d="M111.4,28.19H91.59a20.75,20.75,0,0,0,20.53,24.07c.61,0,1.21,0,1.81-.07v.08a14.22,14.22,0,0,0-13.81,13.12H111.4a2.91,2.91,0,0,0,2.91-2.91V31.11A2.93,2.93,0,0,0,111.4,28.19Z"/><path class="cls-7" d="M82.23,28.19H111.4a2.91,2.91,0,0,1,2.91,2.92h0V60.28a2.91,2.91,0,0,1-2.91,2.91H82.23a2.91,2.91,0,0,1-2.92-2.91h0V31.11a2.92,2.92,0,0,1,2.92-2.92Z"/><path class="cls-8" d="M91.71,45.31a5.81,5.81,0,0,1-1.79-1.9,5.17,5.17,0,0,1-.63-2.61,5.07,5.07,0,0,1,1.16-3.37,6.93,6.93,0,0,1,3.1-2,13,13,0,0,1,4.24-.65,16,16,0,0,1,5.57.78v3.93a8.8,8.8,0,0,0-2.52-1,12.79,12.79,0,0,0-3-.35,6.34,6.34,0,0,0-3,.64,2,2,0,0,0-1.2,1.82,1.8,1.8,0,0,0,.5,1.29,4.63,4.63,0,0,0,1.38,1c.57.29,1.43.67,2.57,1.14a2.39,2.39,0,0,1,.37.15,20.75,20.75,0,0,1,3.24,1.6,5.72,5.72,0,0,1,1.92,1.93,5.59,5.59,0,0,1,.69,2.91,5.38,5.38,0,0,1-1.09,3.51,6,6,0,0,1-2.92,2,13,13,0,0,1-4.16.61,21.52,21.52,0,0,1-3.76-.31,13,13,0,0,1-3.07-.88V51.28a10.16,10.16,0,0,0,3.1,1.47,11.92,11.92,0,0,0,3.41.55,5.82,5.82,0,0,0,3.09-.66,2.07,2.07,0,0,0,1-1.85,2,2,0,0,0-.58-1.42,6,6,0,0,0-1.61-1.12q-1-.51-3-1.35a17.59,17.59,0,0,1-3-1.59Z"/><path class="cls-9" d="M79.31,10.69h70v70h-70Z"/><path class="cls-10" d="M105.78,108.64a4,4,0,0,0,1.28.87,4,4,0,1,0-2.14-2.15,4,4,0,0,0,.86,1.28Zm-1.18,3.74v12.13h2a11,11,0,0,0,2.07-.19,6.19,6.19,0,0,0,2-.69,4.28,4.28,0,0,0,1.46-1.28,3.38,3.38,0,0,0,.58-2v-8Zm-6.54-5.09a3.81,3.81,0,0,0,1.56-.31,4,4,0,0,0,2.15-5.28,4.11,4.11,0,0,0-2.15-2.15,4,4,0,0,0-3.13,0c-.36.15-.48.36-1,.6v6.22c.5.25.62.45,1,.61a3.86,3.86,0,0,0,1.57.31Zm-2.55,20.43c.5.11.69.2,1,.25a9.51,9.51,0,0,0,1.19.08,9.29,9.29,0,0,0,1.82-.19,5.63,5.63,0,0,0,1.73-.68,4,4,0,0,0,1.29-1.28,3.7,3.7,0,0,0,.51-2v-14H95.51v17.87Zm-27.82,3.87L94,136.14V91.66L67.69,96.2Z"/><path class="cls-8" d="M86.91,105.3,74.78,106v2.8l4.55-.18v13l3,.18V108.54l4.55-.2Z"/><rect class="cls-11" x="38.31" y="36.57" width="9.3" height="9.3" rx="1.55" transform="translate(41.73 -18.31) rotate(45)"/><path class="cls-12" d="M11.81,57.08c-1.42,0-4.49-.51-6.08-2.35-1.41-1.64-1.19-3.69-1.16-6,0-1.18,0-14.38,0-22.11a9.27,9.27,0,0,1,1.58-5.85c1.52-2,4.5-1.56,5.82-1.57,1.82,0,43.25.16,45.17.2.7,0,4.27-.19,6,1.85,1.11,1.32,1.18,3.68,1.2,4.83.07,6.55.19,12.47.2,23.58,0,2.25,0,3.37-1.43,5.3-1.69,2.26-3.66,2.27-6,2.11"/><rect class="cls-11" x="47.05" y="45.31" width="9.3" height="9.3" rx="1.55" transform="translate(50.47 -21.93) rotate(45)"/><rect class="cls-11" x="38.31" y="54.04" width="9.3" height="9.3" rx="1.55" transform="translate(54.09 -13.19) rotate(45)"/><rect class="cls-13" x="17.73" y="41.98" width="15.95" height="15.95" rx="0.48" transform="translate(42.86 -3.54) rotate(45)"/><rect class="cls-14" x="20.39" y="44.67" width="10.63" height="10.63" rx="1.77" transform="translate(42.88 -3.54) rotate(45)"/><path class="cls-9" d="M15.77,122.94v4H43.88v1.57a4.57,4.57,0,0,0,4.26-4.54v-1Z"/><path class="cls-9" d="M15.77,126.89v1.61H43.53c.12,0,.23,0,.35,0v-1.57Z"/><path class="cls-9" d="M15.77,122.94v4H43.88v1.57a4.57,4.57,0,0,0,4.26-4.54v-1Z"/><path class="cls-9" d="M15.77,126.89v1.61H43.53c.12,0,.23,0,.35,0v-1.57Z"/><path class="cls-15" d="M43.88,101.46H13.37a4.75,4.75,0,0,0-4.75,4.74V125a4.72,4.72,0,0,0,4.15,4.68v-.49a4.57,4.57,0,0,1-3.54-4.44v-18.1A4.6,4.6,0,0,1,13.85,102H43.53a4.59,4.59,0,0,1,4.61,4.58v18.1a4.58,4.58,0,0,1-4.26,4.55v.44A4.74,4.74,0,0,0,48.62,125V106.2A4.74,4.74,0,0,0,43.88,101.46Z"/><path class="cls-16" d="M34.54,132.88A2.57,2.57,0,0,1,32,135.44a2.5,2.5,0,0,1-2.56-2.56V121.94A2.57,2.57,0,0,1,32,119.39a2.49,2.49,0,0,1,2.55,2.55Z"/><path class="cls-16" d="M27.29,132.88a2.58,2.58,0,0,1-2.56,2.56,2.4,2.4,0,0,1-2.43-2.56V116.23a2.58,2.58,0,0,1,2.55-2.56,2.5,2.5,0,0,1,2.56,2.56v16.65Z"/><path class="cls-16" d="M20.27,132.88a2.57,2.57,0,0,1-2.55,2.56,2.49,2.49,0,0,1-2.55-2.56v-5.95a2.55,2.55,0,1,1,5.1,0Z"/><path class="cls-16" d="M41.55,132.88a2.49,2.49,0,1,1-5,0V110.76a2.55,2.55,0,1,1,5.1,0v22.12Z"/></svg>