<svg id="Layer_1" data-name="Layer 1" xmlns="http://www.w3.org/2000/svg" viewBox="0 0 510.8 581.43"><defs><style>.cls-1,.cls-11,.cls-13,.cls-7{fill:#fff;stroke-width:19.28px;}.cls-1{stroke:#e24b93;}.cls-2{font-size:25.07px;font-family:Arial-BoldMT, Arial;font-weight:700;opacity:0.15;}.cls-3{letter-spacing:-0.06em;}.cls-4{letter-spacing:-0.06em;}.cls-10,.cls-17,.cls-5,.cls-6,.cls-8{fill:none;stroke:#000;}.cls-5{stroke-width:1.34px;}.cls-6{stroke-width:1.33px;}.cls-7{stroke:#23c9e5;}.cls-8{stroke-width:1.33px;}.cls-9{letter-spacing:-0.06em;}.cls-10{stroke-width:1.52px;}.cls-11{stroke:#fcbd4c;}.cls-12{letter-spacing:0em;}.cls-13{stroke:#d1ef75;}.cls-14{font-size:26.57px;font-family:ArialMT, Arial;}.cls-15{letter-spacing:-0.07em;}.cls-16{letter-spacing:-0.07em;}.cls-17{stroke-width:1.53px;}</style></defs><rect class="cls-1" x="242.13" y="9.85" width="258.1" height="329.3"/><text class="cls-2" transform="translate(258.96 48.18)">0<tspan class="cls-3" x="13.94" y="0">11</tspan><tspan x="39.06" y="0">10</tspan><tspan class="cls-3" x="66.94" y="0">1</tspan><tspan x="79.5" y="0">10 0</tspan><tspan class="cls-3" x="128.29" y="0">11</tspan><tspan x="153.4" y="0">10010 </tspan><tspan x="0" y="30.08">0</tspan><tspan class="cls-3" x="13.94" y="30.08">1</tspan><tspan x="26.5" y="30.08">100101 0</tspan><tspan class="cls-4" x="131.06" y="30.08">11</tspan><tspan x="156.17" y="30.08">100</tspan><tspan class="cls-3" x="198" y="30.08">1</tspan><tspan x="210.55" y="30.08">1 </tspan><tspan x="0" y="60.16">0</tspan><tspan class="cls-3" x="13.94" y="60.16">1</tspan><tspan x="26.5" y="60.16">101001 0</tspan><tspan class="cls-4" x="131.06" y="60.16">1</tspan><tspan x="143.61" y="60.16">10</tspan><tspan class="cls-3" x="171.5" y="60.16">111</tspan><tspan x="209.17" y="60.16">1 </tspan><tspan x="0" y="90.25">0</tspan><tspan class="cls-3" x="13.94" y="90.25">1</tspan><tspan x="26.5" y="90.25">10</tspan><tspan class="cls-4" x="54.38" y="90.25">11</tspan><tspan x="79.5" y="90.25">10 00100000 </tspan><tspan x="0" y="120.33">010000</tspan><tspan class="cls-3" x="83.65" y="120.33">1</tspan><tspan x="96.21" y="120.33">1 0</tspan><tspan class="cls-4" x="131.06" y="120.33">1</tspan><tspan x="143.61" y="120.33">10</tspan><tspan class="cls-3" x="171.5" y="120.33">111</tspan><tspan x="209.17" y="120.33">1 </tspan><tspan x="0" y="150.41">0</tspan><tspan class="cls-3" x="13.94" y="150.41">1</tspan><tspan x="26.5" y="150.41">10</tspan><tspan class="cls-4" x="54.38" y="150.41">11</tspan><tspan x="79.5" y="150.41">10 0</tspan><tspan class="cls-3" x="128.29" y="150.41">11</tspan><tspan x="153.4" y="150.41">10100 </tspan><tspan x="0" y="180.49">0</tspan><tspan class="cls-3" x="13.94" y="180.49">11</tspan><tspan x="39.06" y="180.49">10010 0</tspan><tspan class="cls-3" x="129.67" y="180.49">1</tspan><tspan x="142.23" y="180.49">10</tspan><tspan class="cls-3" x="170.11" y="180.49">111</tspan><tspan x="207.79" y="180.49">1 </tspan><tspan x="0" y="210.57">0</tspan><tspan class="cls-3" x="13.94" y="210.57">1</tspan><tspan x="26.5" y="210.57">10</tspan><tspan class="cls-4" x="54.38" y="210.57">1</tspan><tspan x="66.94" y="210.57">100 00100000 </tspan><tspan x="0" y="240.65">01000</tspan><tspan class="cls-3" x="69.71" y="240.65">1</tspan><tspan x="82.27" y="240.65">10 0</tspan><tspan class="cls-4" x="131.06" y="240.65">1</tspan><tspan x="143.61" y="240.65">101001 </tspan><tspan x="0" y="270.74">0</tspan><tspan class="cls-3" x="13.94" y="270.74">1</tspan><tspan x="26.5" y="270.74">10</tspan><tspan class="cls-4" x="54.38" y="270.74">11</tspan><tspan x="79.5" y="270.74">10 0</tspan><tspan class="cls-3" x="128.29" y="270.74">1</tspan><tspan x="140.85" y="270.74">100001 </tspan></text><rect class="cls-5" x="251.6" y="19.22" width="237.83" height="311.12"/><rect class="cls-6" x="232.23" y="0.67" width="277.9" height="348.11"/><rect class="cls-7" x="165" y="86.98" width="258.1" height="329.3"/><rect class="cls-8" x="176.65" y="96.07" width="234.81" height="311.12"/><text class="cls-2" transform="translate(179.46 126.64)">01010<tspan class="cls-3" x="69.71" y="0">1</tspan><tspan x="82.27" y="0">10 01010010 </tspan><tspan x="0" y="30.08">0</tspan><tspan class="cls-9" x="13.94" y="30.08">1</tspan><tspan x="26.5" y="30.08">100101 0</tspan><tspan class="cls-4" x="131.06" y="30.08">11</tspan><tspan x="156.17" y="30.08">100</tspan><tspan class="cls-3" x="198" y="30.08">1</tspan><tspan x="210.56" y="30.08">1 </tspan><tspan x="0" y="60.16">0</tspan><tspan class="cls-9" x="13.94" y="60.16">1</tspan><tspan x="26.5" y="60.16">101001 0</tspan><tspan class="cls-4" x="131.06" y="60.16">1</tspan><tspan x="143.62" y="60.16">10</tspan><tspan class="cls-3" x="171.5" y="60.16">111</tspan><tspan x="209.17" y="60.16">1 </tspan><tspan x="0" y="90.25">0</tspan><tspan class="cls-9" x="13.94" y="90.25">1</tspan><tspan x="26.5" y="90.25">10</tspan><tspan class="cls-3" x="54.38" y="90.25">11</tspan><tspan x="79.5" y="90.25">10 00100000 </tspan><tspan x="0" y="120.33">010000</tspan><tspan class="cls-3" x="83.65" y="120.33">1</tspan><tspan x="96.21" y="120.33">1 0</tspan><tspan class="cls-4" x="131.06" y="120.33">1</tspan><tspan x="143.62" y="120.33">10</tspan><tspan class="cls-3" x="171.5" y="120.33">111</tspan><tspan x="209.17" y="120.33">1 </tspan><tspan x="0" y="150.41">0</tspan><tspan class="cls-9" x="13.94" y="150.41">1</tspan><tspan x="26.5" y="150.41">10</tspan><tspan class="cls-3" x="54.38" y="150.41">11</tspan><tspan x="79.5" y="150.41">10 0</tspan><tspan class="cls-3" x="128.29" y="150.41">11</tspan><tspan x="153.41" y="150.41">10100 </tspan><tspan x="0" y="180.49">0</tspan><tspan class="cls-9" x="13.94" y="180.49">11</tspan><tspan x="39.06" y="180.49">10010 0</tspan><tspan class="cls-3" x="129.67" y="180.49">1</tspan><tspan x="142.23" y="180.49">10</tspan><tspan class="cls-3" x="170.12" y="180.49">111</tspan><tspan x="207.79" y="180.49">1 </tspan><tspan x="0" y="210.57">0</tspan><tspan class="cls-9" x="13.94" y="210.57">1</tspan><tspan x="26.5" y="210.57">10</tspan><tspan class="cls-3" x="54.38" y="210.57">1</tspan><tspan x="66.94" y="210.57">100 00100000 </tspan><tspan x="0" y="240.65">01000</tspan><tspan class="cls-3" x="69.71" y="240.65">1</tspan><tspan x="82.27" y="240.65">10 0</tspan><tspan class="cls-4" x="131.06" y="240.65">1</tspan><tspan x="143.62" y="240.65">101001 </tspan><tspan x="0" y="270.74">0</tspan><tspan class="cls-9" x="13.94" y="270.74">1</tspan><tspan x="26.5" y="270.74">10</tspan><tspan class="cls-3" x="54.38" y="270.74">11</tspan><tspan x="79.5" y="270.74">10 0</tspan><tspan class="cls-3" x="128.29" y="270.74">1</tspan><tspan x="140.85" y="270.74">100001 </tspan></text><rect class="cls-10" x="155.1" y="78.9" width="277.9" height="345.45"/><rect class="cls-11" x="87.87" y="164.11" width="258.1" height="329.3"/><rect class="cls-8" x="99.51" y="173.2" width="234.81" height="311.12"/><text class="cls-2" transform="translate(103.5 203.19)">01010<tspan class="cls-9" x="69.71" y="0">1</tspan><tspan x="82.27" y="0">10 0</tspan><tspan class="cls-3" x="131.06" y="0">11</tspan><tspan x="156.18" y="0">10010 </tspan><tspan x="0" y="30.08">0</tspan><tspan class="cls-9" x="13.94" y="30.08">1</tspan><tspan x="26.5" y="30.08">100101 0</tspan><tspan class="cls-3" x="131.06" y="30.08">11</tspan><tspan x="156.18" y="30.08">100</tspan><tspan class="cls-3" x="198" y="30.08">1</tspan><tspan x="210.56" y="30.08">1 </tspan><tspan x="0" y="60.16">0</tspan><tspan class="cls-9" x="13.94" y="60.16">1</tspan><tspan x="26.5" y="60.16">101001 0</tspan><tspan class="cls-3" x="131.06" y="60.16">1</tspan><tspan x="143.62" y="60.16">10</tspan><tspan class="cls-3" x="171.5" y="60.16">111</tspan><tspan x="209.17" y="60.16">1 </tspan><tspan x="0" y="90.25">0</tspan><tspan class="cls-9" x="13.94" y="90.25">1</tspan><tspan x="26.5" y="90.25">10</tspan><tspan class="cls-3" x="54.38" y="90.25">11</tspan><tspan x="79.5" y="90.25">10 00100000 </tspan><tspan x="0" y="120.33">010000</tspan><tspan class="cls-9" x="83.65" y="120.33">1</tspan><tspan x="96.21" y="120.33">1 0</tspan><tspan class="cls-3" x="131.06" y="120.33">1</tspan><tspan x="143.62" y="120.33">10</tspan><tspan class="cls-3" x="171.5" y="120.33">111</tspan><tspan x="209.17" y="120.33">1 </tspan><tspan x="0" y="150.41">0</tspan><tspan class="cls-9" x="13.94" y="150.41">1</tspan><tspan x="26.5" y="150.41">10</tspan><tspan class="cls-3" x="54.38" y="150.41">11</tspan><tspan x="79.5" y="150.41">10 0</tspan><tspan class="cls-9" x="128.29" y="150.41">11</tspan><tspan class="cls-12" x="153.41" y="150.41">10100 </tspan><tspan x="0" y="180.49">0</tspan><tspan class="cls-9" x="13.94" y="180.49">11</tspan><tspan x="39.06" y="180.49">10010 0</tspan><tspan class="cls-9" x="129.68" y="180.49">1</tspan><tspan x="142.23" y="180.49">10</tspan><tspan class="cls-3" x="170.12" y="180.49">111</tspan><tspan x="207.79" y="180.49">1 </tspan><tspan x="0" y="210.57">0</tspan><tspan class="cls-9" x="13.94" y="210.57">1</tspan><tspan x="26.5" y="210.57">10</tspan><tspan class="cls-3" x="54.38" y="210.57">1</tspan><tspan x="66.94" y="210.57">100 00100000 </tspan><tspan x="0" y="240.65">01000</tspan><tspan class="cls-9" x="69.71" y="240.65">1</tspan><tspan x="82.27" y="240.65">10 0</tspan><tspan class="cls-3" x="131.06" y="240.65">1</tspan><tspan x="143.62" y="240.65">101001 </tspan><tspan x="0" y="270.74">0</tspan><tspan class="cls-9" x="13.94" y="270.74">1</tspan><tspan x="26.5" y="270.74">10</tspan><tspan class="cls-3" x="54.38" y="270.74">11</tspan><tspan x="79.5" y="270.74">10 0</tspan><tspan class="cls-9" x="128.29" y="270.74">1</tspan><tspan x="140.85" y="270.74">100001 </tspan></text><rect class="cls-10" x="77.97" y="156.03" width="277.9" height="345.45"/><rect class="cls-13" x="10.74" y="241.24" width="258.1" height="329.3"/><text class="cls-2" transform="translate(26.59 280.44)">01010<tspan class="cls-9" x="69.71" y="0">1</tspan><tspan x="82.27" y="0">10 0</tspan><tspan class="cls-3" x="131.06" y="0">1</tspan><tspan x="143.62" y="0">100101 </tspan><tspan x="0" y="30.08">0</tspan><tspan class="cls-9" x="13.94" y="30.08">11</tspan><tspan x="39.06" y="30.08">10010 0</tspan><tspan class="cls-9" x="129.68" y="30.08">11</tspan><tspan x="154.79" y="30.08">100</tspan><tspan class="cls-3" x="196.62" y="30.08">1</tspan><tspan x="209.18" y="30.08">1 </tspan><tspan x="0" y="60.16">0</tspan><tspan class="cls-9" x="13.94" y="60.16">1</tspan><tspan x="26.5" y="60.16">101001 0</tspan><tspan class="cls-3" x="131.06" y="60.16">1</tspan><tspan x="143.62" y="60.16">10</tspan><tspan class="cls-9" x="171.5" y="60.16">111</tspan><tspan x="209.18" y="60.16">1 </tspan><tspan x="0" y="90.25">0</tspan><tspan class="cls-9" x="13.94" y="90.25">1</tspan><tspan x="26.5" y="90.25">10</tspan><tspan class="cls-3" x="54.38" y="90.25">11</tspan><tspan x="79.5" y="90.25">10 00100000 </tspan><tspan x="0" y="120.33">010000</tspan><tspan class="cls-9" x="83.65" y="120.33">1</tspan><tspan x="96.21" y="120.33">1 0</tspan><tspan class="cls-3" x="131.06" y="120.33">1</tspan><tspan x="143.62" y="120.33">10</tspan><tspan class="cls-9" x="171.5" y="120.33">111</tspan><tspan x="209.18" y="120.33">1 </tspan><tspan x="0" y="150.41">0</tspan><tspan class="cls-9" x="13.94" y="150.41">1</tspan><tspan x="26.5" y="150.41">10</tspan><tspan class="cls-3" x="54.38" y="150.41">11</tspan><tspan x="79.5" y="150.41">10 0</tspan><tspan class="cls-9" x="128.29" y="150.41">11</tspan><tspan x="153.41" y="150.41">10100 </tspan><tspan x="0" y="180.49">0</tspan><tspan class="cls-9" x="13.94" y="180.49">11</tspan><tspan x="39.06" y="180.49">10010 0</tspan><tspan class="cls-9" x="129.68" y="180.49">1</tspan><tspan x="142.23" y="180.49">10</tspan><tspan class="cls-9" x="170.12" y="180.49">111</tspan><tspan x="207.79" y="180.49">1 </tspan><tspan x="0" y="210.57">0</tspan><tspan class="cls-9" x="13.94" y="210.57">1</tspan><tspan x="26.5" y="210.57">10</tspan><tspan class="cls-3" x="54.38" y="210.57">1</tspan><tspan x="66.94" y="210.57">100 00100000 </tspan><tspan x="0" y="240.65">01000</tspan><tspan class="cls-9" x="69.71" y="240.65">1</tspan><tspan x="82.27" y="240.65">10 0</tspan><tspan class="cls-3" x="131.06" y="240.65">1</tspan><tspan x="143.62" y="240.65">101001 </tspan><tspan x="0" y="270.74">0</tspan><tspan class="cls-9" x="13.94" y="270.74">1</tspan><tspan x="26.5" y="270.74">10</tspan><tspan class="cls-3" x="54.38" y="270.74">11</tspan><tspan x="79.5" y="270.74">10 0</tspan><tspan class="cls-9" x="128.29" y="270.74">1</tspan><tspan x="140.85" y="270.74">100001 </tspan></text><rect class="cls-8" x="22.6" y="251.63" width="234.81" height="311.12"/><text class="cls-14" transform="translate(215.77 276.44)"><tspan class="cls-15">v</tspan><tspan x="11.31" y="0">.4</tspan></text><text class="cls-14" transform="translate(294.06 195.76)"><tspan class="cls-16">v</tspan><tspan x="11.31" y="0">.2</tspan></text><text class="cls-14" transform="translate(371.19 119.08)"><tspan class="cls-16">v</tspan><tspan x="11.31" y="0">.3</tspan></text><text class="cls-14" transform="translate(448.97 42.86)"><tspan class="cls-16">v</tspan><tspan x="11.31" y="0">.4</tspan></text><rect class="cls-17" x="0.76" y="232.32" width="277.9" height="348.35"/></svg>